<svg width="763" height="763" viewBox="0 0 763 763" fill="none" xmlns="http://www.w3.org/2000/svg">
    <path d="M524.552 143.062C524.552 64.0501 460.503 0 381.493 0C302.482 0 238.433 64.0501 238.433 143.062C238.433 222.074 302.482 286.124 381.493 286.124C460.503 286.124 524.552 222.074 524.552 143.062ZM348.097 359.295C259.683 305.169 116.474 290.297 44.4081 286.199C20.1923 284.828 0 303.277 0 326.569V658.592C0 679.947 17.2715 697.756 39.4755 698.903C104.538 702.316 236.168 714.819 327.145 760.643C341.108 767.677 357.664 758.095 357.664 742.954V376.373C357.649 369.413 354.207 363.035 348.097 359.295ZM718.577 286.199C646.526 290.282 503.302 305.169 414.903 359.295C408.793 363.035 405.351 369.667 405.351 376.626V742.91C405.351 758.095 421.952 767.692 435.96 760.643C526.922 714.864 658.477 702.36 723.524 698.948C745.729 697.785 763 679.977 763 658.622V326.569C762.985 303.277 742.793 284.828 718.577 286.199V286.199Z" fill="currentColor" />
</svg>
