<svg width="25" height="17" viewBox="0 0 25 17" fill="none" xmlns="http://www.w3.org/2000/svg">
    <path d="M4.0625 0C3.16739 0 2.30895 0.355579 1.67601 0.988514C1.04308 1.62145 0.6875 2.47989 0.6875 3.375V5.0625H24.3125V3.375C24.3125 2.47989 23.9569 1.62145 23.324 0.988514C22.691 0.355579 21.8326 0 20.9375 0H4.0625Z" fill="currentColor" />
    <path d="M0.6875 13.5V6.75H24.3125V13.5C24.3125 14.3951 23.9569 15.2535 23.324 15.8865C22.691 16.5194 21.8326 16.875 20.9375 16.875H4.0625C3.16739 16.875 2.30895 16.5194 1.67601 15.8865C1.04308 15.2535 0.6875 14.3951 0.6875 13.5ZM16.7188 11.8125C16.495 11.8125 16.2804 11.9014 16.1221 12.0596C15.9639 12.2179 15.875 12.4325 15.875 12.6562C15.875 12.88 15.9639 13.0946 16.1221 13.2529C16.2804 13.4111 16.495 13.5 16.7188 13.5H20.0938C20.3175 13.5 20.5321 13.4111 20.6904 13.2529C20.8486 13.0946 20.9375 12.88 20.9375 12.6562C20.9375 12.4325 20.8486 12.2179 20.6904 12.0596C20.5321 11.9014 20.3175 11.8125 20.0938 11.8125H16.7188Z" fill="currentColor" />
</svg>
