<svg width="149" height="118" viewBox="0 0 149 118" fill="none" xmlns="http://www.w3.org/2000/svg">
    <path fill-rule="evenodd" clip-rule="evenodd" d="M0 101.833V78.3333H47C53.6583 78.3333 58.75 83.425 58.75 90.0833C58.75 96.7417 53.6583 101.833 47 101.833H39.1667V109.667H47C57.9667 109.667 66.5833 101.05 66.5833 90.0833C66.5833 79.1167 57.9667 70.5 47 70.5H35.25V47H47C55.6167 47 62.6667 39.95 62.6667 31.3333C62.6667 22.7167 55.6167 15.6667 47 15.6667H35.25V23.5H47C51.3083 23.5 54.8333 27.025 54.8333 31.3333C54.8333 35.6417 51.3083 39.1667 47 39.1667H0V15.6667C0 7.05 7.05 0 15.6667 0H133.167C141.783 0 148.833 7.05 148.833 15.6667V39.1666H101.833C97.525 39.1666 94 35.6416 94 31.3333C94 27.025 97.525 23.5 101.833 23.5H105.75V15.6666H101.833C93.2167 15.6666 86.1667 22.7166 86.1667 31.3333C86.1667 39.95 93.2167 47 101.833 47H113.583V70.5H101.833C90.8667 70.5 82.25 79.1166 82.25 90.0833C82.25 101.05 90.8667 109.667 101.833 109.667H109.667V101.833H101.833C95.175 101.833 90.0833 96.7416 90.0833 90.0833C90.0833 83.425 95.175 78.3333 101.833 78.3333H148.833V101.833C148.833 110.45 141.783 117.5 133.167 117.5H15.6667C7.05 117.5 0 110.45 0 101.833ZM148.833 70.5V47H121.417V70.5H148.833ZM27.4167 70.5H0V47H27.4167V70.5Z" fill="currentColor" />
</svg>
