<svg width="109" height="106" viewBox="0 0 109 106" fill="none" xmlns="http://www.w3.org/2000/svg">
    <path fill-rule="evenodd" clip-rule="evenodd" d="M54.5 0C24.3887 0 0 24.3174 0 54.3406C0 78.3863 15.6006 98.6961 37.2644 105.896C39.9894 106.372 41.0112 104.741 41.0112 103.315C41.0112 102.024 40.9431 97.7451 40.9431 93.1941C27.25 95.7073 23.7075 89.8657 22.6175 86.8091C22.0044 85.2468 19.3475 80.424 17.0312 79.1335C15.1237 78.1146 12.3987 75.6013 16.9631 75.5334C21.255 75.4655 24.3206 79.4731 25.3425 81.1033C30.2475 89.3223 38.0819 87.0128 41.2156 85.5864C41.6925 82.0543 43.1231 79.6769 44.69 78.3183C32.5637 76.9598 19.8925 72.273 19.8925 51.4877C19.8925 45.5782 22.0044 40.6875 25.4788 36.8837C24.9338 35.5252 23.0262 29.9552 26.0237 22.4834C26.0237 22.4834 30.5881 21.057 41.0112 28.0533C45.3712 26.8307 50.0037 26.2193 54.6362 26.2193C59.2687 26.2193 63.9012 26.8307 68.2612 28.0533C78.6844 20.989 83.2487 22.4834 83.2487 22.4834C86.2462 29.9552 84.3388 35.5252 83.7937 36.8837C87.2681 40.6875 89.38 45.5102 89.38 51.4877C89.38 72.3409 76.6406 76.9598 64.5144 78.3183C66.49 80.0165 68.1931 83.2769 68.1931 88.3714C68.1931 95.6394 68.125 101.481 68.125 103.315C68.125 104.741 69.1469 106.44 71.8719 105.896C82.6909 102.254 92.0922 95.321 98.7525 86.0726C105.413 76.8242 108.997 65.7262 109 54.3406C109 24.3174 84.6112 0 54.5 0Z" fill="currentColor" />
</svg>
