<svg width="236" height="57" viewBox="0 0 236 57" fill="none" xmlns="http://www.w3.org/2000/svg">
<path d="M24.21 17.1499V37.9999H20.79V23.7199L14.43 37.9999H12.06L5.67 23.7199V37.9999H2.25V17.1499H5.94L13.26 33.4999L20.55 17.1499H24.21ZM27.5651 29.6599C27.5651 27.9999 27.9051 26.5299 28.5851 25.2499C29.2851 23.9699 30.2251 22.9799 31.4051 22.2799C32.6051 21.5599 33.9251 21.1999 35.3651 21.1999C36.6651 21.1999 37.7951 21.4599 38.7551 21.9799C39.7351 22.4799 40.5151 23.1099 41.0951 23.8699V21.4699H44.5451V37.9999H41.0951V35.5399C40.5151 36.3199 39.7251 36.9699 38.7251 37.4899C37.7251 38.0099 36.5851 38.2699 35.3051 38.2699C33.8851 38.2699 32.5851 37.9099 31.4051 37.1899C30.2251 36.4499 29.2851 35.4299 28.5851 34.1299C27.9051 32.8099 27.5651 31.3199 27.5651 29.6599ZM41.0951 29.7199C41.0951 28.5799 40.8551 27.5899 40.3751 26.7499C39.9151 25.9099 39.3051 25.2699 38.5451 24.8299C37.7851 24.3899 36.9651 24.1699 36.0851 24.1699C35.2051 24.1699 34.3851 24.3899 33.6251 24.8299C32.8651 25.2499 32.2451 25.8799 31.7651 26.7199C31.3051 27.5399 31.0751 28.5199 31.0751 29.6599C31.0751 30.7999 31.3051 31.7999 31.7651 32.6599C32.2451 33.5199 32.8651 34.1799 33.6251 34.6399C34.4051 35.0799 35.2251 35.2999 36.0851 35.2999C36.9651 35.2999 37.7851 35.0799 38.5451 34.6399C39.3051 34.1999 39.9151 33.5599 40.3751 32.7199C40.8551 31.8599 41.0951 30.8599 41.0951 29.7199ZM47.8971 29.6599C47.8971 27.9999 48.2371 26.5299 48.9171 25.2499C49.6171 23.9699 50.5571 22.9799 51.7371 22.2799C52.9371 21.5599 54.2671 21.1999 55.7271 21.1999C56.8071 21.1999 57.8671 21.4399 58.9071 21.9199C59.9671 22.3799 60.8071 22.9999 61.4271 23.7799V15.7999H64.8771V37.9999H61.4271V35.5099C60.8671 36.3099 60.0871 36.9699 59.0871 37.4899C58.1071 38.0099 56.9771 38.2699 55.6971 38.2699C54.2571 38.2699 52.9371 37.9099 51.7371 37.1899C50.5571 36.4499 49.6171 35.4299 48.9171 34.1299C48.2371 32.8099 47.8971 31.3199 47.8971 29.6599ZM61.4271 29.7199C61.4271 28.5799 61.1871 27.5899 60.7071 26.7499C60.2471 25.9099 59.6371 25.2699 58.8771 24.8299C58.1171 24.3899 57.2971 24.1699 56.4171 24.1699C55.5371 24.1699 54.7171 24.3899 53.9571 24.8299C53.1971 25.2499 52.5771 25.8799 52.0971 26.7199C51.6371 27.5399 51.4071 28.5199 51.4071 29.6599C51.4071 30.7999 51.6371 31.7999 52.0971 32.6599C52.5771 33.5199 53.1971 34.1799 53.9571 34.6399C54.7371 35.0799 55.5571 35.2999 56.4171 35.2999C57.2971 35.2999 58.1171 35.0799 58.8771 34.6399C59.6371 34.1999 60.2471 33.5599 60.7071 32.7199C61.1871 31.8599 61.4271 30.8599 61.4271 29.7199ZM84.5191 29.3299C84.5191 29.9499 84.4791 30.5099 84.3991 31.0099H71.7691C71.8691 32.3299 72.3591 33.3899 73.2391 34.1899C74.1191 34.9899 75.1991 35.3899 76.4791 35.3899C78.3191 35.3899 79.6191 34.6199 80.3791 33.0799H84.0691C83.5691 34.5999 82.6591 35.8499 81.3391 36.8299C80.0391 37.7899 78.4191 38.2699 76.4791 38.2699C74.8991 38.2699 73.4791 37.9199 72.2191 37.2199C70.9791 36.4999 69.9991 35.4999 69.2791 34.2199C68.5791 32.9199 68.2291 31.4199 68.2291 29.7199C68.2291 28.0199 68.5691 26.5299 69.2491 25.2499C69.9491 23.9499 70.9191 22.9499 72.1591 22.2499C73.4191 21.5499 74.8591 21.1999 76.4791 21.1999C78.0391 21.1999 79.4291 21.5399 80.6491 22.2199C81.8691 22.8999 82.8191 23.8599 83.4991 25.0999C84.1791 26.3199 84.5191 27.7299 84.5191 29.3299ZM80.9491 28.2499C80.9291 26.9899 80.4791 25.9799 79.5991 25.2199C78.7191 24.4599 77.6291 24.0799 76.3291 24.0799C75.1491 24.0799 74.1391 24.4599 73.2991 25.2199C72.4591 25.9599 71.9591 26.9699 71.7991 28.2499H80.9491ZM117.878 21.4699L112.748 37.9999H109.148L105.818 25.7899L102.488 37.9999H98.8877L93.7277 21.4699H97.2077L100.658 34.7599L104.168 21.4699H107.738L111.098 34.6999L114.518 21.4699H117.878ZM122.174 19.2799C121.554 19.2799 121.034 19.0699 120.614 18.6499C120.194 18.2299 119.984 17.7099 119.984 17.0899C119.984 16.4699 120.194 15.9499 120.614 15.5299C121.034 15.1099 121.554 14.8999 122.174 14.8999C122.774 14.8999 123.284 15.1099 123.704 15.5299C124.124 15.9499 124.334 16.4699 124.334 17.0899C124.334 17.7099 124.124 18.2299 123.704 18.6499C123.284 19.0699 122.774 19.2799 122.174 19.2799ZM123.854 21.4699V37.9999H120.434V21.4699H123.854ZM132.334 24.2599V33.4099C132.334 34.0299 132.474 34.4799 132.754 34.7599C133.054 35.0199 133.554 35.1499 134.254 35.1499H136.354V37.9999H133.654C132.114 37.9999 130.934 37.6399 130.114 36.9199C129.294 36.1999 128.884 35.0299 128.884 33.4099V24.2599H126.934V21.4699H128.884V17.3599H132.334V21.4699H136.354V24.2599H132.334ZM148.056 21.1999C149.316 21.1999 150.436 21.4699 151.416 22.0099C152.416 22.5499 153.196 23.3499 153.756 24.4099C154.336 25.4699 154.626 26.7499 154.626 28.2499V37.9999H151.236V28.7599C151.236 27.2799 150.866 26.1499 150.126 25.3699C149.386 24.5699 148.376 24.1699 147.096 24.1699C145.816 24.1699 144.796 24.5699 144.036 25.3699C143.296 26.1499 142.926 27.2799 142.926 28.7599V37.9999H139.506V15.7999H142.926V23.3899C143.506 22.6899 144.236 22.1499 145.116 21.7699C146.016 21.3899 146.996 21.1999 148.056 21.1999Z" fill="#00D8FF"/>
<path d="M224.621 18.456C223.94 18.2223 223.253 18.0058 222.561 17.8067C222.677 17.3317 222.784 16.8625 222.879 16.4015C224.439 8.83121 223.419 2.73246 219.937 0.724456C216.598 -1.20054 211.138 0.806706 205.623 5.60596C205.08 6.07979 204.548 6.56728 204.029 7.06796C203.682 6.73502 203.329 6.40855 202.969 6.08871C197.19 0.957207 191.397 -1.20554 187.918 0.808206C184.582 2.73921 183.595 8.47246 184.999 15.647C185.138 16.3575 185.296 17.0644 185.472 17.767C184.652 18 183.86 18.248 183.103 18.512C176.327 20.8745 172 24.5767 172 28.417C172 32.3832 176.646 36.3615 183.703 38.7737C184.275 38.9685 184.852 39.1489 185.433 39.315C185.245 40.0716 185.077 40.8334 184.931 41.5995C183.592 48.6495 184.637 54.2472 187.964 56.166C191.4 58.1475 197.167 56.111 202.782 51.2022C203.238 50.8031 203.683 50.3928 204.118 49.9715C204.68 50.5136 205.257 51.04 205.848 51.55C211.287 56.2305 216.66 58.1205 219.983 56.1965C223.416 54.2092 224.532 48.1957 223.083 40.8795C222.969 40.3063 222.841 39.7359 222.699 39.169C223.104 39.049 223.502 38.9255 223.889 38.797C231.226 36.3662 236 32.4362 236 28.417C236 24.5627 231.533 20.8355 224.621 18.456V18.456ZM223.029 36.202C222.679 36.3177 222.32 36.4295 221.954 36.5382C221.144 33.974 220.051 31.2475 218.714 28.4302C219.99 25.6802 221.041 22.9885 221.828 20.441C222.483 20.6305 223.118 20.8302 223.731 21.041C229.653 23.08 233.266 26.0942 233.266 28.417C233.266 30.891 229.364 34.1027 223.029 36.202V36.202ZM220.401 41.4105C221.042 44.6455 221.133 47.5705 220.708 49.8572C220.327 51.912 219.561 53.2817 218.613 53.8305C216.596 54.998 212.283 53.4805 207.631 49.4775C207.081 49.0033 206.545 48.5139 206.022 48.01C207.825 46.0377 209.628 43.745 211.387 41.1985C214.481 40.924 217.404 40.475 220.055 39.8622C220.185 40.389 220.301 40.9055 220.401 41.4105V41.4105ZM193.819 53.6287C191.849 54.3245 190.279 54.3445 189.33 53.7975C187.311 52.6332 186.472 48.1385 187.617 42.1095C187.753 41.397 187.909 40.6885 188.084 39.9847C190.706 40.5647 193.607 40.9817 196.709 41.2332C198.48 43.725 200.334 46.0152 202.203 48.0207C201.806 48.405 201.399 48.7794 200.983 49.1437C198.5 51.3142 196.012 52.8542 193.819 53.6287V53.6287ZM184.587 36.1867C181.467 35.12 178.89 33.7337 177.123 32.221C175.536 30.8617 174.734 29.512 174.734 28.417C174.734 26.0865 178.208 23.114 184.003 21.0937C184.707 20.8487 185.443 20.6175 186.206 20.4005C187.007 23.0055 188.058 25.7292 189.326 28.4835C188.041 31.2785 186.976 34.0457 186.167 36.6815C185.637 36.5295 185.11 36.3645 184.587 36.1867V36.1867ZM187.682 15.1217C186.479 8.97496 187.278 4.33821 189.288 3.17446C191.429 1.93496 196.164 3.70221 201.154 8.13321C201.479 8.4228 201.8 8.71827 202.114 9.01946C200.255 11.0162 198.418 13.2895 196.662 15.7665C193.652 16.0455 190.771 16.4935 188.122 17.0937C187.959 16.4403 187.812 15.7828 187.682 15.122V15.1217ZM215.289 21.9387C214.663 20.8579 214.014 19.7908 213.342 18.738C215.384 18.9962 217.341 19.339 219.178 19.758C218.627 21.526 217.939 23.3742 217.13 25.2692C216.538 24.1469 215.925 23.0365 215.289 21.9387V21.9387ZM204.031 10.9735C205.292 12.3397 206.555 13.865 207.797 15.52C205.277 15.4009 202.753 15.4004 200.233 15.5185C201.476 13.8787 202.75 12.3555 204.031 10.9735ZM192.701 21.9575C192.073 23.0464 191.47 24.1499 190.894 25.267C190.098 23.3787 189.417 21.522 188.86 19.729C190.686 19.3205 192.634 18.9865 194.663 18.733C193.983 19.7922 193.329 20.8672 192.701 21.9572V21.9575ZM194.721 38.2955C192.625 38.0615 190.648 37.7447 188.823 37.3472C189.388 35.5222 190.084 33.626 190.897 31.6972C191.476 32.8151 192.081 33.9192 192.711 35.0087C193.36 36.1287 194.031 37.2257 194.721 38.2955ZM204.106 46.053C202.81 44.655 201.518 43.1082 200.256 41.4447C201.481 41.4927 202.73 41.5172 204 41.5172C205.304 41.5172 206.594 41.488 207.863 41.4315C206.617 43.125 205.359 44.674 204.106 46.053ZM217.156 31.5987C218.011 33.5487 218.732 35.435 219.305 37.2287C217.449 37.6522 215.446 37.9932 213.335 38.2465C214.011 37.1741 214.666 36.0884 215.299 34.99C215.943 33.8735 216.562 32.7428 217.156 31.5987V31.5987ZM212.931 33.624C211.962 35.3081 210.938 36.9602 209.861 38.5777C207.91 38.7159 205.955 38.7845 204 38.7835C202.008 38.7835 200.071 38.7215 198.205 38.6005C197.101 36.9867 196.057 35.3316 195.077 33.639H195.077C194.102 31.9552 193.191 30.2351 192.347 28.4822C193.189 26.7289 194.097 25.008 195.069 23.323L195.069 23.3232C196.04 21.6378 197.076 19.9898 198.172 18.383C200.076 18.239 202.027 18.164 204 18.164H204C205.982 18.164 207.936 18.2397 209.839 18.3847C210.924 19.9892 211.953 21.6314 212.922 23.3085C213.897 24.9898 214.818 26.7023 215.681 28.4435C214.826 30.2024 213.909 31.9303 212.931 33.624V33.624ZM218.571 3.09296C220.714 4.32896 221.548 9.31321 220.201 15.8495C220.115 16.2665 220.019 16.6912 219.914 17.122C217.258 16.509 214.375 16.0532 211.356 15.77C209.598 13.2657 207.776 10.989 205.946 9.01796C206.426 8.55583 206.916 8.1057 207.418 7.66796C212.143 3.55621 216.559 1.93271 218.571 3.09296V3.09296ZM204 22.702C207.156 22.702 209.715 25.2607 209.715 28.417C209.715 31.5732 207.156 34.132 204 34.132C200.844 34.132 198.285 31.5732 198.285 28.417C198.285 25.2607 200.844 22.702 204 22.702V22.702Z" fill="#00D8FF"/>
</svg>
