<svg width="83" height="82" viewBox="0 0 83 82" fill="none" xmlns="http://www.w3.org/2000/svg">
    <path d="M48.8011 0C48.213 0 47.6668 0.12664 47.1625 0.295388C48.2339 1.01216 48.8221 1.96117 49.116 3.03681C49.1373 3.18451 49.1792 3.29009 49.2002 3.43747C49.2212 3.56411 49.2421 3.69075 49.2421 3.81707C49.3263 5.67297 48.7592 5.90488 48.3598 7.00158C47.7506 8.41472 47.9187 9.93312 48.654 11.1561C48.7169 11.3038 48.8011 11.4726 48.9059 11.6203C48.1078 6.28448 52.5403 5.48317 53.3594 3.81707C53.4223 2.36214 52.2251 1.39177 51.2798 0.717096C50.3765 0.168428 49.5573 0 48.8011 0ZM55.481 1.20197C55.3971 1.68715 55.46 1.56051 55.439 1.81379C55.4181 1.98254 55.4181 2.1934 55.3971 2.36214C55.3552 2.53057 55.3132 2.69932 55.25 2.86807C55.208 3.03713 55.1451 3.20556 55.0822 3.37431C54.998 3.54306 54.9351 3.69075 54.8509 3.85918C54.788 3.94371 54.746 4.02824 54.6828 4.11246L54.557 4.30226C54.4521 4.44995 54.347 4.59765 54.2418 4.72397C54.1156 4.85061 54.0108 4.9983 53.8637 5.10357V5.12462C53.7375 5.23021 53.6117 5.35685 53.4646 5.46212C53.0236 5.79961 52.5193 6.05257 52.057 6.36901C51.9102 6.47428 51.7631 6.55882 51.6369 6.68546C51.4898 6.79072 51.3637 6.89599 51.2379 7.02295C51.0907 7.14927 50.9859 7.27591 50.8597 7.4236C50.7549 7.54993 50.6287 7.69794 50.5445 7.84531C50.4397 7.99301 50.3348 8.14038 50.2506 8.28808C50.1664 8.45714 50.1035 8.60452 50.0193 8.77295C49.9564 8.94201 49.8935 9.08971 49.8516 9.25813C49.7883 9.44794 49.7464 9.61668 49.7044 9.78543C49.6835 9.86996 49.6835 9.97523 49.6625 10.0598C49.6412 10.144 49.6412 10.2285 49.6206 10.3127C49.6206 10.4815 49.5993 10.6713 49.5993 10.84C49.5993 10.9667 49.5993 11.093 49.6206 11.2196C49.6206 11.3884 49.6415 11.5571 49.6835 11.7469C49.7044 11.9157 49.7464 12.0841 49.7883 12.2528C49.8516 12.4219 49.8935 12.5903 49.9567 12.7591C49.9983 12.8644 50.0616 12.9699 50.1035 13.0545L45.2723 11.1775C44.4652 10.9468 43.6527 10.7358 42.8355 10.5446L41.5121 10.2285C40.2516 9.97523 38.9702 9.78543 37.689 9.65911C37.6471 9.65911 37.6258 9.63774 37.5842 9.63774C36.3346 9.51139 35.0796 9.44804 33.8237 9.44794C32.8994 9.44794 31.9751 9.49004 31.072 9.5532C29.7903 9.63774 28.5091 9.80648 27.2274 10.0173C26.9125 10.0598 26.5973 10.1229 26.2824 10.1864C25.631 10.3127 25.0009 10.4604 24.3918 10.6081L23.4462 10.8611C23.1314 10.9877 22.8371 11.1354 22.5432 11.2617L21.8499 11.5782C21.808 11.5992 21.7657 11.5992 21.745 11.6203C21.5347 11.7255 21.3456 11.8101 21.1566 11.9153C21.106 11.9326 21.0568 11.9538 21.0095 11.9788C20.7785 12.0841 20.5475 12.2107 20.3584 12.3163C20.2113 12.3795 20.0642 12.4637 19.9384 12.5269C19.8774 12.5656 19.8143 12.6009 19.7493 12.6324C19.5603 12.7377 19.3712 12.8433 19.2028 12.9489C19.0141 13.0542 18.846 13.1597 18.6989 13.2653C18.5517 13.3706 18.4049 13.4551 18.2788 13.5604C18.2578 13.5814 18.2369 13.5814 18.2156 13.6025C18.0897 13.687 17.9426 13.7923 17.8165 13.8979L17.7745 13.94L17.4597 14.193C17.4174 14.2143 17.3755 14.2564 17.3335 14.2775C17.2287 14.3617 17.1235 14.4673 17.0183 14.5518C16.9973 14.5936 16.9554 14.615 16.9344 14.636C16.8083 14.7627 16.6821 14.8679 16.5563 14.9946C16.535 14.9946 16.535 15.0156 16.5144 15.0367C16.3882 15.142 16.2621 15.2686 16.1363 15.3952C16.115 15.4163 16.115 15.4373 16.094 15.4373C15.9891 15.5426 15.8843 15.6482 15.7791 15.7748C15.7372 15.8169 15.6743 15.8591 15.632 15.9012C15.5272 16.0278 15.401 16.1544 15.2749 16.2808C15.2539 16.3232 15.212 16.3442 15.1907 16.3864C15.0229 16.5551 14.8758 16.7238 14.7077 16.8926L14.6448 16.9558C14.3086 17.3143 13.9515 17.6729 13.5734 17.9893C13.2009 18.323 12.8079 18.6329 12.3968 18.9172C11.9894 19.204 11.5689 19.4714 11.1366 19.7186C10.7079 19.9546 10.266 20.1658 9.8132 20.3511C9.36633 20.5418 8.91058 20.7107 8.44754 20.8574C7.56549 21.0472 6.66183 21.4057 5.88495 21.4689C5.71655 21.4689 5.52781 21.511 5.35972 21.532C5.17067 21.5745 5.00258 21.6166 4.83449 21.6587L4.33024 21.8485C4.16215 21.9116 3.99438 21.9962 3.8263 22.0804C3.67918 22.1856 3.5111 22.2702 3.36398 22.3758C3.21687 22.481 3.07007 22.6077 2.94393 22.7343C2.79682 22.8396 2.6497 22.9873 2.52387 23.1139C2.39773 23.2616 2.27159 23.3882 2.16673 23.5356C2.06188 23.7044 1.93573 23.8521 1.85153 24.0205C1.74668 24.1685 1.64151 24.3369 1.5573 24.5057C1.47342 24.6955 1.38954 24.8642 1.3263 25.0543C1.26004 25.2359 1.19702 25.4186 1.13725 25.6024C1.09531 25.7711 1.05336 25.9399 1.03239 26.1086C1.03239 26.1297 1.0111 26.1507 1.0111 26.1718C0.969163 26.3616 0.969163 26.6149 0.948192 26.7412C0.927221 26.8889 0.90625 27.0155 0.90625 27.1629C0.90625 27.2474 0.90625 27.3527 0.927221 27.4372C0.948192 27.5849 0.969163 27.7116 1.01142 27.8379C1.05336 27.9645 1.09531 28.0908 1.15854 28.2175V28.2385C1.22145 28.3652 1.30533 28.4918 1.38954 28.6181C1.47342 28.7448 1.55762 28.8714 1.66279 28.9977C1.76765 29.103 1.89347 29.23 2.01962 29.3352C2.14576 29.4619 2.27191 29.5671 2.4187 29.6727C2.92296 30.1155 3.0491 30.2632 3.70016 30.6007C3.80501 30.6638 3.91018 30.7059 4.03633 30.7694C4.0573 30.7694 4.07827 30.7905 4.09924 30.7905C4.09924 30.8326 4.09924 30.8536 4.12053 30.8957C4.1415 31.0648 4.18344 31.2332 4.22538 31.402C4.26733 31.5918 4.33024 31.7605 4.39347 31.9082C4.45638 32.0349 4.49832 32.1612 4.56155 32.2878C4.58253 32.3299 4.6035 32.3724 4.62447 32.3931C4.70867 32.5622 4.79287 32.7095 4.87675 32.8572L5.19164 33.3C5.29649 33.4266 5.42264 33.5743 5.54878 33.701C5.67492 33.8273 5.80107 33.9329 5.94786 34.0592C5.94786 34.0592 5.96915 34.0806 5.9898 34.0806C6.11595 34.1858 6.24209 34.2911 6.36792 34.3756C6.51503 34.4809 6.66215 34.5654 6.83023 34.65C6.97735 34.7342 7.14543 34.8187 7.3132 34.8819C7.43934 34.945 7.58646 34.9872 7.73357 35.0296C7.75454 35.0506 7.77552 35.0506 7.81746 35.0717C7.90166 35.0927 8.00651 35.1138 8.09072 35.1348C8.02748 36.2737 8.00651 37.3493 8.1746 37.7289C8.36366 38.1506 9.28797 36.8644 10.2123 35.3881C10.0865 36.8431 10.0026 38.5513 10.2123 39.0575C10.4433 39.5848 11.7038 37.9398 12.7962 36.126C27.69 32.6674 41.2811 43.0012 42.7097 57.5951C42.4364 55.3175 39.6428 54.0521 38.3614 54.3685C37.731 55.929 36.6599 57.9326 34.9374 59.1767C35.0842 57.7849 35.0213 56.3508 34.727 54.959C34.265 56.8991 33.3617 58.7129 32.1222 60.2734C30.1268 60.4211 28.1313 59.451 27.0806 57.9958C26.9967 57.9326 26.9757 57.806 26.9128 57.7215C26.8496 57.5741 26.7867 57.4264 26.7444 57.2787C26.6832 57.1373 26.6409 56.9884 26.6186 56.8359C26.5976 56.6882 26.5976 56.5406 26.5976 56.3718V56.0557C26.6186 55.908 26.6605 55.7603 26.7025 55.6126C26.7444 55.4652 26.7867 55.3175 26.8496 55.1698C26.9338 55.0221 26.9967 54.8745 27.1015 54.7271C27.4587 53.7146 27.4587 52.8922 26.8076 52.407C26.6815 52.3244 26.5479 52.2539 26.4085 52.1965C26.3243 52.1751 26.2195 52.1327 26.1353 52.112C26.0724 52.0906 26.0304 52.0695 25.9672 52.0485C25.8204 52.0064 25.6733 51.9643 25.5262 51.9432C25.3828 51.9015 25.2344 51.8802 25.0851 51.8797C24.938 51.8587 24.7699 51.8376 24.6228 51.8376C24.518 51.8376 24.4131 51.8587 24.3076 51.8587C24.1399 51.8587 23.9928 51.8801 23.8456 51.9222C23.6985 51.9432 23.5514 51.9643 23.4046 52.0064C23.2575 52.0485 23.1104 52.0909 22.9633 52.1541C22.8165 52.2172 22.69 52.2807 22.5432 52.3439C22.4171 52.407 22.2912 52.4916 22.1441 52.5547C17.2496 55.7606 20.1694 63.2681 23.5095 65.4405C22.249 65.6724 20.9675 65.9467 20.6107 66.2207L20.5688 66.2628C21.4718 66.8115 22.4171 67.2753 23.4046 67.676C24.749 68.1187 26.1775 68.5194 26.8076 68.6881V68.7092C28.548 69.0675 30.3277 69.1951 32.1012 69.0888C41.4072 68.4348 49.0327 61.328 50.419 51.9643C50.461 52.1541 50.5032 52.3228 50.5452 52.5126C50.6081 52.8922 50.6923 53.2929 50.7342 53.6935V53.7149C50.7762 53.9047 50.7972 54.0945 50.8184 54.2633V54.3475C50.8394 54.5373 50.8604 54.7271 50.8604 54.8958C50.8814 55.1277 50.9023 55.3596 50.9023 55.5919V55.929C50.9023 56.0346 50.9233 56.1613 50.9233 56.2665C50.9233 56.3932 50.9023 56.5198 50.9023 56.6461V56.9415C50.9023 57.0892 50.8814 57.2159 50.8814 57.3632C50.8814 57.4478 50.8814 57.532 50.8601 57.6376C50.8601 57.7849 50.8391 57.9326 50.8391 58.1014C50.8181 58.1645 50.8181 58.228 50.8181 58.2912C50.7971 58.4599 50.7762 58.6076 50.7549 58.7761C50.7549 58.8395 50.7549 58.9027 50.7339 58.9662C50.7129 59.1767 50.671 59.3668 50.65 59.5777V59.6198C50.6081 59.8096 50.5658 60.0208 50.5239 60.2106V60.2737L50.3978 60.8431C50.3978 60.8642 50.3768 60.9063 50.3768 60.9273C50.3348 61.1171 50.2929 61.3069 50.2297 61.4971V61.5602C50.1667 61.7711 50.1038 61.9609 50.0619 62.1507C50.0406 62.1717 50.0406 62.1928 50.0406 62.1928L49.8516 62.8254C49.7677 63.0365 49.7048 63.2263 49.6206 63.4372C49.5367 63.6477 49.4734 63.8589 49.3896 64.0487C49.3054 64.2595 49.2211 64.4493 49.1376 64.6602H49.1163C49.0324 64.85 48.9482 65.0609 48.843 65.2507C48.8259 65.3015 48.8049 65.3508 48.7801 65.3984C48.7592 65.4197 48.7592 65.4405 48.7382 65.4618C47.3728 68.2243 45.3561 70.6496 42.8355 72.5476C42.6671 72.6529 42.4993 72.7798 42.3312 72.9062C42.2893 72.9483 42.2264 72.9697 42.1841 73.0114C42.037 73.117 41.8902 73.2226 41.7221 73.3279L41.785 73.4545H41.806L42.6884 73.3279H42.7093C43.2559 73.2437 43.8017 73.1381 44.3479 73.0328C44.4951 73.0118 44.6631 72.9697 44.8099 72.9275C44.9151 72.9062 44.999 72.8851 45.1042 72.8641C45.2513 72.843 45.3984 72.8009 45.5452 72.7795C45.6713 72.7374 45.7975 72.7164 45.9233 72.6743C48.0242 72.168 50.0619 71.472 52.0154 70.6496C48.6753 75.2259 44.2008 78.9166 38.9702 81.3419C41.386 81.1732 43.8017 80.7725 46.1337 80.0979C54.5993 77.588 61.7205 71.8729 65.9849 64.1753C65.1193 69.0582 63.1896 73.6887 60.3339 77.7357C62.3697 76.3875 64.2507 74.8173 65.9426 73.0539C70.6484 68.119 73.7362 61.8553 74.7867 55.1277C75.5033 58.4654 75.7087 61.8932 75.3958 65.2931C90.5626 44.0558 76.6563 22.0386 70.8375 16.239C70.8162 16.1969 70.7955 16.1758 70.7955 16.1337C70.7742 16.1548 70.7742 16.1548 70.7742 16.1758C70.7742 16.1544 70.7742 16.1544 70.7533 16.1337C70.7533 16.3867 70.7323 16.6396 70.7113 16.8929C70.6484 17.3778 70.5852 17.8419 70.5013 18.3061C70.3964 18.7699 70.2703 19.2337 70.1441 19.6978C69.9945 20.1543 69.8263 20.6045 69.6399 21.0472C69.4508 21.4692 69.2408 21.9119 69.0098 22.334C68.7788 22.7346 68.5268 23.1563 68.2536 23.5359C67.9835 23.9281 67.6962 24.3081 67.3925 24.6747C67.077 25.0543 66.7411 25.3918 66.405 25.7293C66.2072 25.911 66.004 26.0867 65.7958 26.2563C65.6274 26.404 65.4807 26.5306 65.3126 26.6783C64.9344 26.9734 64.5563 27.2477 64.1363 27.5007C63.7372 27.7537 63.3168 28.0069 62.8971 28.2178C62.4554 28.4287 62.0144 28.6185 61.5734 28.8083C61.1257 28.9779 60.67 29.1257 60.208 29.251C59.7435 29.3765 59.2739 29.4821 58.8004 29.5675C58.3175 29.652 57.8345 29.6941 57.3722 29.7362C57.036 29.7573 56.6998 29.7783 56.3637 29.7783C55.8807 29.7783 55.3974 29.7362 54.9354 29.6941C54.4521 29.6517 53.9689 29.5885 53.5069 29.4829C53.0239 29.3987 52.5616 29.2724 52.0993 29.1247H52.0783C52.5406 29.0823 53.0029 29.0402 53.4649 28.9556C53.9388 28.8726 54.4085 28.7671 54.8725 28.6395C55.3344 28.5142 55.7899 28.3664 56.2375 28.1967C56.6998 28.0277 57.1409 27.8171 57.5612 27.606C58.0023 27.3954 58.4014 27.1632 58.8214 26.9102C59.2205 26.6359 59.6199 26.3616 59.998 26.0665C60.3743 25.7728 60.732 25.4558 61.0691 25.1175C61.4263 24.8011 61.7415 24.4428 62.0567 24.084C62.3637 23.7147 62.6579 23.3349 62.9387 22.9452C62.9807 22.882 63.0229 22.7978 63.0649 22.7346C63.2749 22.3971 63.4849 22.0596 63.674 21.7221C63.9051 21.304 64.1154 20.8746 64.3044 20.4356C64.4941 19.9944 64.6623 19.544 64.8083 19.0863C64.9554 18.6429 65.0606 18.1791 65.1655 17.7153C65.2496 17.2304 65.3338 16.7663 65.3755 16.3021C65.4174 15.8173 65.4597 15.3324 65.4597 14.8683C65.4597 14.5308 65.4387 14.1933 65.4177 13.8558C65.3758 13.3709 65.3129 12.9068 65.2493 12.4426C65.1668 11.967 65.0618 11.4955 64.9348 11.0298C64.7873 10.5871 64.6405 10.1229 64.4725 9.68016C64.3041 9.2374 64.0943 8.79432 63.8843 8.37261C63.653 7.9509 63.422 7.52887 63.17 7.12854C62.9018 6.73324 62.6215 6.34633 62.3296 5.96836C62.0133 5.60459 61.6912 5.24599 61.3633 4.89271C61.1864 4.71182 61.0042 4.53609 60.8171 4.36574C59.876 3.63192 58.9016 2.94216 57.8971 2.29866C57.7614 2.2201 57.6211 2.1498 57.477 2.08813C56.784 1.64505 56.133 1.41314 55.4816 1.20228L55.481 1.20197Z" fill="currentColor" />
</svg>
