<svg width="252" height="53" viewBox="0 0 252 53" fill="none" xmlns="http://www.w3.org/2000/svg">
    <path d="M36.4368 9.93747C36.4368 4.44909 31.9878 0 26.4995 0C21.0112 0 16.5622 4.44909 16.5622 9.93747C16.5622 15.4259 21.0112 19.8749 26.4995 19.8749C31.9878 19.8749 36.4368 15.4259 36.4368 9.93747ZM24.1797 24.9576C18.0383 21.1979 8.09062 20.1648 3.08471 19.8801C1.40261 19.7849 0 21.0664 0 22.6844V45.7476C0 47.231 1.19972 48.468 2.74208 48.5477C7.26148 48.7847 16.4048 49.6532 22.7243 52.8363C23.6943 53.3249 24.8443 52.6593 24.8443 51.6076V26.1438C24.8433 25.6604 24.6041 25.2174 24.1797 24.9576ZM49.9143 19.8801C44.9094 20.1638 34.9607 21.1979 28.8203 24.9576C28.3959 25.2174 28.1567 25.678 28.1567 26.1614V51.6045C28.1567 52.6593 29.3099 53.3259 30.2829 52.8363C36.6014 49.6563 45.7396 48.7878 50.2579 48.5508C51.8003 48.47 53 47.233 53 45.7496V22.6844C52.999 21.0664 51.5964 19.7849 49.9143 19.8801V19.8801Z" fill="#2BABE1" />
    <path d="M88.2314 37.1172C88.0068 37.0391 87.5234 37 86.7812 37H79.252C78.7441 37 78.3389 36.9219 78.0361 36.7656C77.7334 36.5996 77.582 36.3018 77.582 35.8721C77.582 35.5596 77.6553 35.3105 77.8018 35.125C78.1729 35.2227 78.5293 35.2715 78.8711 35.2715C79.2129 35.2715 79.4814 35.2373 79.6768 35.1689C79.8721 35.0908 80.043 34.959 80.1895 34.7734C80.4824 34.3828 80.6289 33.7334 80.6289 32.8252V18.1182C80.6289 17.21 80.0918 16.6436 79.0176 16.4189C78.3438 16.2822 77.9043 16.126 77.6992 15.9502C77.4941 15.7744 77.3916 15.584 77.3916 15.3789C77.3916 14.9297 77.4697 14.627 77.626 14.4707C77.8018 14.5195 77.9629 14.5439 78.1094 14.5439H81.7422L86.957 14.3975C91.5273 14.3975 94.418 15.6426 95.6289 18.1328C96.0684 19.0312 96.2881 19.9297 96.2881 20.8281C96.2881 21.7266 96.2246 22.4932 96.0977 23.1279C95.9707 23.7627 95.751 24.3828 95.4385 24.9883C95.1357 25.584 94.7305 26.1504 94.2227 26.6875C93.7148 27.2148 93.0801 27.6787 92.3184 28.0791C90.668 28.9385 88.5586 29.3682 85.9902 29.3682H85.4336C85.1602 29.3682 85.0234 29.1924 85.0234 28.8408C85.0234 28.0693 85.2334 27.6348 85.6533 27.5371C89.3252 27.6152 91.5469 26.5215 92.3184 24.2559C92.5527 23.543 92.6699 22.7812 92.6699 21.9707C92.6699 21.1602 92.582 20.418 92.4062 19.7441C92.2305 19.0605 91.9131 18.4551 91.4541 17.9277C90.4385 16.7754 88.7588 16.1992 86.415 16.1992C85.4678 16.1992 84.8379 16.4043 84.5254 16.8145C84.2324 17.1758 84.0859 17.9082 84.0859 19.0117V33.6455C84.1348 34.4072 84.7402 34.8711 85.9023 35.0371C86.9473 35.1836 87.5967 35.3203 87.8506 35.4473C88.1045 35.5742 88.2705 35.7012 88.3486 35.8281C88.4268 35.9453 88.4658 36.0918 88.4658 36.2676C88.4658 36.6387 88.3877 36.9219 88.2314 37.1172ZM108.944 35.1396C107.519 36.5654 105.795 37.2783 103.773 37.2783C102.211 37.2783 100.961 36.8291 100.023 35.9307C99.0762 35.0225 98.6025 33.8457 98.6025 32.4004C98.6025 30.6035 99.4033 29.2559 101.005 28.3574C102.45 27.5371 104.486 27.127 107.113 27.127H108.944C108.954 26.7559 108.959 26.3945 108.959 26.043V24.9443C108.959 23.6357 108.769 22.7129 108.388 22.1758C107.958 21.5703 107.226 21.2676 106.19 21.2676C103.817 21.2676 102.597 22.1172 102.528 23.8164C102.519 24.0801 102.523 24.2998 102.543 24.4756C102.348 24.6318 102.016 24.71 101.547 24.71C101.088 24.71 100.751 24.6562 100.536 24.5488C100.331 24.4414 100.15 24.2949 99.9941 24.1094C99.6621 23.7285 99.4961 23.2451 99.4961 22.6592C99.4961 22.0635 99.667 21.5459 100.009 21.1064C100.36 20.6572 100.834 20.291 101.43 20.0078C102.592 19.4316 103.964 19.1436 105.546 19.1436C107.128 19.1436 108.314 19.2998 109.105 19.6123C109.906 19.915 110.541 20.3203 111.01 20.8281C111.84 21.7266 112.255 22.9326 112.255 24.4463L112.108 31.4775C112.108 32.7568 112.167 33.5674 112.284 33.9092C112.411 34.251 112.558 34.4805 112.724 34.5977C112.899 34.7148 113.109 34.7734 113.354 34.7734C113.607 34.7734 113.812 34.7344 113.969 34.6562L114.379 34.4658C114.516 34.417 114.633 34.4756 114.73 34.6416C114.838 34.7979 114.892 34.9395 114.892 35.0664C114.892 35.1836 114.838 35.3398 114.73 35.5352C114.633 35.7305 114.442 35.9404 114.159 36.165C113.886 36.3799 113.573 36.5703 113.222 36.7363C111.278 37.6543 109.955 37.4395 109.252 36.0918C109.105 35.8281 109.003 35.5107 108.944 35.1396ZM108.9 33.2207C108.9 31.8145 108.91 30.418 108.93 29.0312C106.898 29.1094 105.517 29.2412 104.784 29.4268C104.062 29.6025 103.539 29.7734 103.217 29.9395C102.895 30.1055 102.641 30.3008 102.455 30.5254C102.152 30.8965 102.001 31.458 102.001 32.21C102.001 32.9521 102.265 33.5479 102.792 33.9971C103.319 34.4365 104.076 34.6562 105.062 34.6562C106.459 34.6562 107.738 34.1777 108.9 33.2207ZM124.369 42.4785C124.496 42.6445 124.56 42.8545 124.56 43.1084C124.56 43.3623 124.447 43.5771 124.223 43.7529C123.998 43.9385 123.725 44.0898 123.402 44.207C122.787 44.4219 122.196 44.5293 121.63 44.5293C121.063 44.5293 120.595 44.4902 120.224 44.4121C119.853 44.334 119.545 44.1973 119.301 44.002C118.832 43.6113 118.598 42.9521 118.598 42.0244V23.9629C118.598 23.0449 118.427 22.4736 118.085 22.249C117.948 22.1611 117.768 22.1172 117.543 22.1172C117.318 22.1172 117.138 22.1514 117.001 22.2197C116.874 22.2881 116.767 22.3369 116.679 22.3662C116.601 22.3955 116.532 22.3955 116.474 22.3662C116.415 22.3271 116.356 22.2734 116.298 22.2051C116.151 22.0293 116.078 21.8633 116.078 21.707C116.078 21.541 116.137 21.3652 116.254 21.1797C116.381 20.9844 116.581 20.7646 116.854 20.5205C117.128 20.2666 117.44 20.0371 117.792 19.832C118.583 19.373 119.374 19.1436 120.165 19.1436C121.122 19.1436 121.674 19.8613 121.82 21.2969C123.354 19.8613 125.023 19.1436 126.83 19.1436C128.822 19.1436 130.453 19.832 131.723 21.209C133.1 22.6934 133.788 24.7637 133.788 27.4199C133.788 29.4023 133.339 31.1748 132.44 32.7373C131.62 34.1631 130.492 35.2812 129.057 36.0918C127.68 36.8828 126.215 37.2783 124.662 37.2783C123.793 37.2783 122.86 37.1416 121.864 36.8682V38.9043C121.864 40.4863 121.952 41.458 122.128 41.8193C122.313 42.1904 122.499 42.4102 122.685 42.4785C122.88 42.5469 123.1 42.5811 123.344 42.5811C123.598 42.5811 123.939 42.5469 124.369 42.4785ZM121.864 23.582V33.748C122.792 34.5391 123.91 34.9346 125.219 34.9346C126.742 34.9346 127.982 34.373 128.939 33.25C129.955 32.0488 130.463 30.4131 130.463 28.3428C130.463 26.165 130.014 24.5195 129.115 23.4062C128.314 22.4004 127.201 21.8975 125.775 21.8975C124.35 21.8975 123.046 22.459 121.864 23.582ZM136.938 29.1191C136.938 27.9375 137.06 26.8877 137.304 25.9697C137.548 25.0518 137.875 24.2314 138.285 23.5088C138.705 22.7764 139.193 22.1367 139.75 21.5898C140.316 21.043 140.922 20.5889 141.566 20.2275C142.836 19.5049 144.086 19.1436 145.316 19.1436C146.547 19.1436 147.533 19.3633 148.275 19.8027C149.018 20.2324 149.623 20.8086 150.092 21.5312C150.961 22.9082 151.396 24.7393 151.396 27.0244C151.396 27.874 151.039 28.3086 150.326 28.3281L140.102 28.5479C140.16 30.667 140.707 32.2344 141.742 33.25C142.621 34.1094 143.759 34.5391 145.155 34.5391C147.235 34.5391 148.925 34.1045 150.224 33.2354C150.312 33.2354 150.419 33.3086 150.546 33.4551C150.79 33.748 150.912 34.002 150.912 34.2168C150.912 34.6855 150.326 35.2861 149.154 36.0186C147.807 36.8584 146.234 37.2783 144.438 37.2783C142.094 37.2783 140.253 36.5312 138.915 35.0371C137.597 33.5723 136.938 31.5996 136.938 29.1191ZM140.189 26.6582C143.002 26.5215 145.575 26.3408 147.909 26.1162C148.017 23.0107 146.942 21.458 144.687 21.458C143.427 21.458 142.396 21.9463 141.596 22.9229C140.863 23.8213 140.395 25.0664 140.189 26.6582ZM162.763 37.0732C162.558 37.0244 162.245 37 161.825 37H156.859C155.922 37 155.321 36.834 155.058 36.502C154.95 36.375 154.896 36.2285 154.896 36.0625C154.896 35.6523 154.975 35.3496 155.131 35.1543C155.365 35.2324 155.58 35.2715 155.775 35.2715C155.98 35.2715 156.151 35.2471 156.288 35.1982C156.425 35.1396 156.532 35.0469 156.61 34.9199C156.747 34.6855 156.815 34.2266 156.815 33.543V23.9629C156.815 23.0449 156.645 22.4736 156.303 22.249C156.166 22.1611 155.985 22.1172 155.761 22.1172C155.536 22.1172 155.355 22.1514 155.219 22.2197C155.092 22.2881 154.984 22.3369 154.896 22.3662C154.818 22.3955 154.75 22.3955 154.691 22.3662C154.633 22.3271 154.574 22.2734 154.516 22.2051C154.369 22.0293 154.296 21.8633 154.296 21.707C154.296 21.541 154.354 21.3652 154.472 21.1797C154.599 20.9844 154.799 20.7646 155.072 20.5205C155.346 20.2666 155.658 20.0371 156.01 19.832C156.801 19.373 157.592 19.1436 158.383 19.1436C159.281 19.1436 159.813 19.7295 159.979 20.9014C160.028 21.2432 160.058 21.5996 160.067 21.9707C161.493 20.7109 162.963 19.8467 164.477 19.3779C164.984 19.2217 165.443 19.1436 165.854 19.1436C166.273 19.1436 166.615 19.2021 166.879 19.3193C167.152 19.4365 167.367 19.5977 167.523 19.8027C167.816 20.2031 167.963 20.7158 167.963 21.3408C167.963 21.9658 167.934 22.4639 167.875 22.835C167.816 23.2061 167.743 23.5332 167.655 23.8164C167.479 24.3926 167.313 24.7588 167.157 24.915C166.884 25.1982 166.518 25.3398 166.059 25.3398C165.59 25.3398 165.355 25.2031 165.355 24.9297C165.355 23.8848 165.312 23.2158 165.224 22.9229C165.058 22.3857 164.745 22.1172 164.286 22.1172C163.827 22.1172 163.412 22.1709 163.041 22.2783C162.67 22.376 162.309 22.5127 161.957 22.6885C161.244 23.04 160.619 23.4941 160.082 24.0508V33.792C160.111 34.5635 160.448 35.0322 161.093 35.1982C161.278 35.2471 161.488 35.291 161.723 35.3301C161.957 35.3691 162.157 35.418 162.323 35.4766C162.499 35.5254 162.636 35.584 162.733 35.6523C162.899 35.7793 162.982 35.9844 162.982 36.2676C162.982 36.6191 162.909 36.8877 162.763 37.0732ZM180.004 37.1465L175.141 36.9854H171.435C170.927 36.9854 170.502 36.9023 170.16 36.7363C169.818 36.5605 169.647 36.3457 169.647 36.0918C169.647 35.623 169.721 35.2959 169.867 35.1104C170.199 35.208 170.551 35.2568 170.922 35.2568C171.293 35.2568 171.596 35.2324 171.83 35.1836C172.074 35.1348 172.289 35.0322 172.475 34.876C172.904 34.5244 173.119 33.9141 173.119 33.0449V18.1182C173.119 17.21 172.567 16.6436 171.464 16.4189C170.761 16.2725 170.307 16.1162 170.102 15.9502C169.906 15.7744 169.809 15.584 169.809 15.3789C169.809 14.9297 169.887 14.627 170.043 14.4707C170.219 14.5195 170.385 14.5439 170.541 14.5439C170.541 14.5439 171.991 14.5439 174.892 14.5439C175.341 14.5439 175.946 14.5195 176.708 14.4707C177.479 14.4219 178.549 14.3975 179.916 14.3975C181.293 14.3975 182.523 14.5244 183.607 14.7783C184.701 15.0322 185.6 15.3887 186.303 15.8477C187.65 16.7363 188.324 17.9863 188.324 19.5977C188.324 21.4336 187.553 22.918 186.01 24.0508C185.434 24.4707 184.696 24.832 183.798 25.1348C186.679 25.3691 188.529 26.4727 189.35 28.4453C189.604 29.0801 189.73 29.8369 189.73 30.7158C189.73 31.585 189.53 32.4297 189.13 33.25C188.729 34.0605 188.124 34.7539 187.313 35.3301C185.634 36.541 183.197 37.1465 180.004 37.1465ZM176.532 24.5488L178.744 24.5635C179.184 24.5635 179.706 24.5635 180.312 24.5635C180.927 24.5635 181.527 24.4561 182.113 24.2412C182.699 24.0166 183.188 23.7188 183.578 23.3477C184.379 22.5859 184.779 21.6094 184.779 20.418C184.779 19.0605 184.447 18.0645 183.783 17.4297C183.002 16.6582 181.649 16.2725 179.726 16.2725C178.417 16.2725 177.602 16.3945 177.279 16.6387C176.967 16.8828 176.762 17.1709 176.664 17.5029C176.576 17.8252 176.532 18.25 176.532 18.7773V24.5488ZM180.062 26.4971C178.471 26.4971 177.294 26.5068 176.532 26.5264V33.4697C176.532 34.4561 177.177 35.0078 178.466 35.125C178.866 35.1543 179.423 35.1689 180.136 35.1689C180.849 35.1689 181.596 35.0957 182.377 34.9492C183.158 34.8027 183.832 34.5537 184.398 34.2021C185.58 33.46 186.171 32.2832 186.171 30.6719C186.171 27.8887 184.135 26.4971 180.062 26.4971ZM192.499 28.9141C192.499 27.7227 192.616 26.6533 192.851 25.7061C193.085 24.7588 193.407 23.9238 193.817 23.2012C194.228 22.4785 194.711 21.8633 195.268 21.3555C195.824 20.8379 196.42 20.418 197.055 20.0957C198.295 19.4609 199.657 19.1436 201.142 19.1436C203.046 19.1436 204.662 19.8369 205.99 21.2236C207.465 22.7471 208.202 24.7588 208.202 27.2588C208.202 30.54 207.309 33.0938 205.521 34.9199C203.969 36.4922 202.108 37.2783 199.94 37.2783C197.675 37.2783 195.858 36.4824 194.491 34.8906C193.163 33.3574 192.499 31.3652 192.499 28.9141ZM200.805 34.8906C201.459 34.8906 202.045 34.7393 202.562 34.4365C203.08 34.124 203.52 33.6992 203.881 33.1621C204.604 32.0488 204.965 30.6035 204.965 28.8262C204.965 26.873 204.584 25.2129 203.822 23.8457C202.963 22.2734 201.728 21.4873 200.116 21.4873C198.817 21.4873 197.777 21.9854 196.996 22.9814C196.166 24.0361 195.751 25.5107 195.751 27.4053C195.751 29.7783 196.273 31.6533 197.318 33.0303C198.256 34.2705 199.418 34.8906 200.805 34.8906ZM211.103 28.9141C211.103 27.7227 211.22 26.6533 211.454 25.7061C211.688 24.7588 212.011 23.9238 212.421 23.2012C212.831 22.4785 213.314 21.8633 213.871 21.3555C214.428 20.8379 215.023 20.418 215.658 20.0957C216.898 19.4609 218.261 19.1436 219.745 19.1436C221.649 19.1436 223.266 19.8369 224.594 21.2236C226.068 22.7471 226.806 24.7588 226.806 27.2588C226.806 30.54 225.912 33.0938 224.125 34.9199C222.572 36.4922 220.712 37.2783 218.544 37.2783C216.278 37.2783 214.462 36.4824 213.095 34.8906C211.767 33.3574 211.103 31.3652 211.103 28.9141ZM219.408 34.8906C220.062 34.8906 220.648 34.7393 221.166 34.4365C221.684 34.124 222.123 33.6992 222.484 33.1621C223.207 32.0488 223.568 30.6035 223.568 28.8262C223.568 26.873 223.188 25.2129 222.426 23.8457C221.566 22.2734 220.331 21.4873 218.72 21.4873C217.421 21.4873 216.381 21.9854 215.6 22.9814C214.77 24.0361 214.354 25.5107 214.354 27.4053C214.354 29.7783 214.877 31.6533 215.922 33.0303C216.859 34.2705 218.021 34.8906 219.408 34.8906ZM237.396 37.0732C237.201 37.0244 236.889 37 236.459 37H232.064C231.127 37 230.526 36.834 230.263 36.502C230.155 36.375 230.102 36.2285 230.102 36.0625C230.102 35.6523 230.18 35.3496 230.336 35.1543C230.57 35.2324 230.839 35.2715 231.142 35.2715C231.444 35.2715 231.669 35.1494 231.815 34.9053C231.962 34.6611 232.03 34.207 232.021 33.543V15.3936C232.021 14.7197 231.952 14.2852 231.815 14.0898C231.61 13.7773 231.249 13.6211 230.731 13.6211C230.575 13.6211 230.414 13.6406 230.248 13.6797C230.092 13.709 229.97 13.7041 229.882 13.665C229.804 13.6162 229.74 13.5527 229.691 13.4746C229.564 13.2793 229.574 13.084 229.721 12.8887C229.877 12.6836 230.097 12.4687 230.38 12.2441C230.663 12.0195 230.976 11.8242 231.317 11.6582C232.05 11.2773 232.68 11.0869 233.207 11.0869C233.744 11.0869 234.14 11.165 234.394 11.3213C234.657 11.4775 234.853 11.6875 234.979 11.9512C235.194 12.3809 235.302 13.0742 235.302 14.0312V33.6895C235.302 34.5 235.546 34.998 236.034 35.1836C236.171 35.2422 236.332 35.291 236.518 35.3301C236.713 35.3691 236.889 35.418 237.045 35.4766C237.201 35.5254 237.323 35.584 237.411 35.6523C237.558 35.7793 237.631 35.9844 237.631 36.2676C237.631 36.6094 237.553 36.8779 237.396 37.0732ZM243.593 19.1436C245.116 19.1436 245.878 19.6123 245.878 20.5498C245.878 21.7314 244.691 23.3623 242.318 25.4424C241.4 26.2529 240.478 26.9463 239.55 27.5225C240.175 28.0986 240.814 28.8457 241.469 29.7637L243.007 31.9316C244.296 33.7773 245.268 34.7002 245.922 34.7002C246.459 34.7002 246.811 34.6465 246.977 34.5391C247.152 34.4316 247.279 34.373 247.357 34.3633C247.436 34.3535 247.538 34.3877 247.665 34.4658C247.792 34.5439 247.855 34.6758 247.855 34.8613C247.855 35.0469 247.777 35.2812 247.621 35.5645C247.475 35.8379 247.265 36.1016 246.991 36.3555C246.327 36.9707 245.609 37.2783 244.838 37.2783C244.066 37.2783 243.417 37.0977 242.89 36.7363C242.362 36.3652 241.869 35.8916 241.41 35.3154C240.951 34.7295 240.517 34.0801 240.106 33.3672L238.891 31.2871C237.904 29.5879 237.06 28.4844 236.356 27.9766C235.946 27.6934 235.81 27.5127 235.946 27.4346L236.371 27.2002L238.729 25.5156C239.735 24.7637 240.429 24.1729 240.81 23.7432C241.552 22.9131 241.923 22.2197 241.923 21.6631C241.923 21.2725 241.532 21.0479 240.751 20.9893C240.653 20.833 240.604 20.667 240.604 20.4912C240.604 20.3154 240.697 20.1445 240.883 19.9785C241.078 19.8027 241.322 19.6562 241.615 19.5391C242.24 19.2754 242.899 19.1436 243.593 19.1436Z" fill="#2BABE1" />
</svg>
