<svg width="91" height="82" viewBox="0 0 91 82" fill="none" xmlns="http://www.w3.org/2000/svg">
    <path d="M74.7572 26.3645C73.7897 26.0307 72.8139 25.7215 71.8309 25.4371C71.9961 24.7585 72.1481 24.0882 72.283 23.4297C74.4983 12.6155 73.0501 3.90335 68.1036 1.03489C63.3609 -1.71499 55.6047 1.15239 47.7713 8.00817C46.9993 8.68505 46.2445 9.38143 45.5074 10.0967C45.014 9.62106 44.5119 9.15469 44.0014 8.69779C35.7916 1.36738 27.5627 -1.72213 22.6215 1.15453C17.8831 3.91299 16.48 12.103 18.4744 22.3519C18.6728 23.3669 18.8969 24.3767 19.1463 25.3803C17.9815 25.7131 16.8575 26.0674 15.7819 26.4445C6.15659 29.8194 0.00976562 35.1081 0.00976562 40.594C0.00976562 46.2598 6.60866 51.9428 16.6338 55.3887C17.4465 55.6669 18.2661 55.9247 19.0916 56.1619C18.8235 57.2428 18.5855 58.331 18.3778 59.4253C16.4765 69.4963 17.9612 77.4928 22.6869 80.2337C27.5677 83.0643 35.7597 80.1552 43.7361 73.143C44.3829 72.5729 45.0154 71.9866 45.6332 71.3848C46.4313 72.1593 47.2508 72.9112 48.0906 73.6397C55.8174 80.3259 63.4483 83.0258 68.1693 80.2773C73.0455 77.4385 74.6304 68.8481 72.5728 58.3968C72.4107 57.578 72.2289 56.7633 72.0277 55.9533C72.603 55.7819 73.1676 55.6055 73.7181 55.4219C84.1402 51.9496 90.9213 46.3355 90.9213 40.594C90.9213 35.0881 84.576 29.7637 74.7572 26.3645ZM72.4968 51.7149C71.9996 51.8803 71.4897 52.0399 70.9698 52.1953C69.8192 48.5322 68.2666 44.6374 66.3663 40.6129C68.1796 36.6845 69.6725 32.8393 70.7908 29.2001C71.7209 29.4708 72.6232 29.7562 73.4933 30.0573C81.9061 32.97 87.0377 37.2759 87.0377 40.594C87.0377 44.1281 81.4956 48.7161 72.4968 51.7149ZM68.763 59.1553C69.6729 63.7766 69.8025 67.955 69.1998 71.2216C68.6586 74.1568 67.5698 76.1135 66.2232 76.8974C63.3584 78.5652 57.2315 76.3975 50.6237 70.6791C49.8426 70.0018 49.0803 69.3027 48.3378 68.5828C50.8996 65.7654 53.4597 62.4902 55.9584 58.8525C60.3534 58.4604 64.5055 57.819 68.2708 56.9436C68.4562 57.6961 68.621 58.4339 68.763 59.1553ZM31.0035 76.6092C28.2044 77.6031 25.975 77.6317 24.6273 76.8503C21.7596 75.1872 20.5675 68.7663 22.1936 60.1539C22.3869 59.1361 22.6082 58.124 22.8573 57.1186C26.5811 57.9472 30.7031 58.5429 35.1084 58.9021C37.6241 62.4616 40.258 65.7333 42.9126 68.5981C42.3484 69.1471 41.7709 69.682 41.1806 70.2024C37.6532 73.3029 34.1186 75.5029 31.0035 76.6092ZM17.8902 51.6931C13.4572 50.1693 9.79625 48.189 7.28695 46.028C5.03192 44.0863 3.89375 42.1582 3.89375 40.594C3.89375 37.2648 8.82889 33.0186 17.0603 30.1326C18.0593 29.7826 19.1047 29.4523 20.1896 29.1423C21.3275 32.8636 22.8197 36.7545 24.6205 40.6889C22.7962 44.6816 21.2827 48.6347 20.1339 52.3999C19.3804 52.1828 18.6322 51.9472 17.8902 51.6931ZM22.2859 21.6015C20.5774 12.8208 21.7121 6.19718 24.5676 4.53475C27.6089 2.76411 34.3342 5.28864 41.4228 11.6184C41.885 12.0321 42.3398 12.4541 42.7868 12.8844C40.1454 15.7368 37.5356 18.9841 35.0423 22.5226C30.7666 22.9211 26.6738 23.5611 22.9109 24.4186C22.6791 23.4851 22.4707 22.5459 22.2859 21.6019V21.6015ZM61.5011 31.3397C60.6123 29.7958 59.6906 28.2714 58.7365 26.7674C61.6371 27.1363 64.4163 27.6259 67.0261 28.2245C66.2427 30.7501 65.2661 33.3903 64.1166 36.0974C63.2764 34.4941 62.4044 32.9079 61.5011 31.3397ZM45.5092 15.6757C47.3005 17.6274 49.0945 19.8063 50.8591 22.1704C47.2795 22.0004 43.6939 21.9997 40.1142 22.1683C41.8806 19.8259 43.6899 17.6499 45.5092 15.6757ZM29.4147 31.3665C28.5227 32.9221 27.667 34.4984 26.8482 36.0941C25.7175 33.3968 24.7498 30.7444 23.9596 28.183C26.5534 27.5995 29.3195 27.1224 32.2017 26.7602C31.237 28.2734 30.3077 29.8091 29.4147 31.3661V31.3665ZM32.2844 54.7055C29.3067 54.3712 26.4991 53.9188 23.906 53.3509C24.7086 50.7439 25.6976 48.0351 26.8528 45.2798C27.6749 46.8768 28.5342 48.454 29.4299 50.0104C30.3511 51.6103 31.305 53.1774 32.2844 54.7055ZM45.6165 65.7872C43.7755 63.7901 41.9395 61.5806 40.1465 59.2043C41.8873 59.2728 43.6619 59.3078 45.4655 59.3078C47.3186 59.3078 49.1503 59.266 50.9533 59.1853C49.183 61.6045 47.3956 63.8173 45.6165 65.7872ZM64.1532 45.1391C65.3684 47.9247 66.3926 50.6193 67.2058 53.1816C64.5701 53.7866 61.7241 54.2737 58.7255 54.6355C59.6864 53.1036 60.6169 51.5527 61.5164 49.9836C62.431 48.3886 63.3101 46.7734 64.1532 45.1391ZM58.1523 48.0322C56.7752 50.438 55.3207 52.798 53.791 55.1087C51.0202 55.3061 48.2433 55.4041 45.4655 55.4026C42.6363 55.4026 39.8844 55.3141 37.2345 55.1412C35.6649 52.8359 34.1826 50.4717 32.7908 48.0536H32.7912C31.4059 45.6484 30.112 43.1912 28.9122 40.6872C30.1089 38.1826 31.3989 35.7242 32.7795 33.3171L32.7791 33.3175C34.1591 30.9098 35.6296 28.5557 37.1873 26.2603C39.8908 26.0546 42.6633 25.9474 45.4652 25.9474H45.4655C48.2802 25.9474 51.0562 26.0556 53.7591 26.2628C55.3011 28.5548 56.7621 30.9008 58.1395 33.2964C59.5247 35.6982 60.8317 38.1446 62.0587 40.6318C60.8443 43.1445 59.5414 45.6128 58.1523 48.0322ZM66.1639 4.41832C69.208 6.18396 70.392 13.304 68.4793 22.6411C68.3571 23.2368 68.2201 23.8436 68.0709 24.4589C64.2988 23.5832 60.2031 22.9322 55.915 22.5276C53.4171 18.9502 50.8286 15.6979 48.2302 12.8823C48.9112 12.2221 49.6084 11.5791 50.3211 10.9538C57.033 5.08008 63.3059 2.76089 66.1639 4.41832ZM45.4655 32.43C49.949 32.43 53.5837 36.0852 53.5837 40.594C53.5837 45.1027 49.949 48.7579 45.4655 48.7579C40.9821 48.7579 37.3474 45.1027 37.3474 40.594C37.3474 36.0852 40.9821 32.43 45.4655 32.43Z" fill="currentColor" />
</svg>
