<svg width="214" height="106" viewBox="0 0 214 106" fill="none" xmlns="http://www.w3.org/2000/svg">
    <path d="M162.755 6.38873C164.173 6.67664 165.537 6.80187 165.764 8.83014C165.879 9.86321 167.273 9.96889 168.302 9.99676C170.147 10.0471 170.63 10.3454 170.52 11.9909C170.431 13.3198 170.861 13.713 172.103 13.8224C173.739 13.9664 175.272 14.4327 176.993 13.7708C178.543 13.1754 179.429 13.9614 180.165 15.8274C180.321 16.2226 180.544 16.7498 181.006 16.4648C183.111 15.1658 185.625 16.1777 187.88 15.0314C189.379 14.2701 191.513 14.615 193.017 16.0595C193.743 16.7581 194.606 17.0938 195.508 16.4797C196.464 15.8286 197.257 16.4277 197.749 16.9341C199.312 18.5421 201.078 18.0641 202.872 17.7221C203.112 17.6763 203.344 17.5898 203.58 17.5224C204.555 17.2432 203.641 19.4795 204.733 18.5263C205.312 18.0212 205.717 17.9155 206.371 17.8361C209.353 17.4737 211.552 19.165 213.839 20.664L212.745 23.2332C212.666 23.213 212.586 23.1946 212.507 23.1778C211.858 23.0426 211.266 21.9076 211.07 22.218C210.666 22.8587 209.853 23.4066 209.958 24.3028C210.094 25.4528 209.525 25.7245 208.507 25.7732C207.6 25.8164 206.673 25.977 205.971 26.6939C205.399 27.2785 204.721 27.2901 203.91 27.2589C201.814 27.1782 200.685 28.1734 200.423 30.2982C200.154 32.4775 198.119 33.2597 197.043 34.7945C196.695 35.2904 196.383 34.6476 196.196 34.3169C195.342 32.8033 195.871 31.3962 196.633 30.0681C197.001 29.4257 197.594 28.9148 198.062 28.3253C198.345 27.9679 199.083 27.7382 198.747 27.1823C198.45 26.6906 197.766 26.557 197.174 26.5724C196.434 26.592 195.933 27.0996 195.591 27.6758C194.997 28.6801 194.296 28.5324 193.266 28.3477C190.58 27.8663 187.8 27.5847 185.929 30.2799C185.434 30.9934 183.902 31.0974 184.369 32.2561C184.809 33.3466 186.163 32.6252 187.081 32.9077C187.758 33.1161 188.672 32.8823 188.702 33.7947C188.735 34.7783 189.736 35.8792 188.619 36.7554C188.273 37.0275 187.96 37.1931 187.913 37.6561C187.889 37.8895 187.897 38.2428 187.612 38.2419C187.342 38.2411 187.371 37.8924 187.343 37.6682C187.323 37.5026 187.337 37.3333 187.318 37.1673C187.265 36.7017 187.47 36.1966 187.108 35.7776C186.982 36.249 186.939 36.7649 186.715 37.1847C185.651 39.1889 184.517 41.0819 182.031 41.6852C179.752 42.2377 179.526 42.7041 180.074 45.0049C180.274 45.8437 180.278 46.558 179.379 46.8547C178.509 47.1414 178.238 46.3338 177.938 45.7746C177.707 45.3436 177.577 44.8368 177.502 44.3488C177.392 43.634 176.995 43.5695 176.438 43.7742C176.004 43.9336 175.544 44.4736 175.148 43.8337C174.875 43.3923 174.701 43.1002 174.307 43.654C174.071 43.9856 173.7 44.3941 173.746 44.717C173.846 45.4193 174.367 44.851 174.706 44.8838C175.674 44.9787 176.586 45.0939 175.314 46.2352C174.737 46.7528 174.91 47.4301 175.042 48.1058C175.718 51.5565 174.239 54.1057 170.963 55.2757C170.145 55.5681 169.123 55.5182 168.77 56.6719C168.545 57.4071 168.208 57.3447 167.881 56.6087C167.486 55.7187 166.894 56.2883 166.451 56.5987C165.849 57.0206 165.839 57.549 166.398 58.0553C166.646 58.28 166.911 58.4872 167.143 58.7272C168.724 60.3644 168.168 62.6565 166.016 63.5115C165.422 63.7474 165.331 63.3421 165.094 63.0051C164.448 62.0886 163.333 61.0068 162.503 61.7574C161.432 62.726 162.565 63.8763 163.416 64.6914C164.043 65.2909 164.78 66.0128 164.622 66.7916C164.258 68.5732 165.836 69.6566 165.936 71.2347C165.981 71.9462 166.666 72.0527 167.237 72.2108C168.91 72.6747 170.468 73.6333 172.316 73.3449C172.634 73.2954 173.102 73.4232 173.125 73.7652C173.158 74.2503 172.654 74.1105 172.36 74.1371C170.251 74.3264 168.092 73.9711 166.195 73.3649C164.733 72.8977 163.495 71.2156 162.545 69.8118C161.756 68.6427 160.89 67.5268 159.955 66.4713C159.681 66.163 159.169 65.9683 159.5 65.5019C159.873 64.976 160.418 65.1828 160.805 65.5235C161.366 66.0182 161.856 66.594 162.384 67.1286C162.558 67.3059 162.808 67.4998 163.02 67.3213C163.268 67.1124 163.002 66.8853 162.872 66.7039C161.5 64.7833 160.985 62.6527 161.174 60.3049C161.244 59.4295 161.101 58.5533 159.802 58.8338C158.684 59.0751 158.714 58.0087 158.326 57.4595C156.697 55.1546 156.092 55.0955 154 56.964C153.519 57.393 152.992 57.7703 152.467 58.1431C150.66 59.4258 150.183 61.3259 151.112 63.4353C151.302 63.8676 151.768 64.3461 151.253 64.7838C150.779 65.1873 150.379 64.6768 149.927 64.5225C147.842 63.8098 147.057 62.0723 146.77 60.203C146.343 57.4183 144.246 55.8086 142.748 53.7687C142.364 53.2449 141.79 53.1342 141.187 53.1238C140.435 53.1105 139.676 53.0439 138.931 53.1167C138.467 53.1621 138.025 53.0947 137.59 52.9994C136.848 52.8372 136.408 53.7908 137.013 54.2497C137.302 54.4685 137.615 54.6678 137.882 54.905C138.363 55.3318 137.868 55.5906 137.728 55.9526C136.844 58.243 134.641 58.8325 132.747 59.7025C131.563 60.2463 130.442 61.0684 129.057 61.1499C128.8 61.1649 128.544 61.3001 128.544 61.5939C128.544 61.9904 128.857 62.1818 129.191 62.2117C130.039 62.2883 130.787 61.8256 131.598 61.6962C132.728 61.5165 133.273 62.2829 132.769 63.3101C131.775 65.3375 130.497 67.2077 128.666 68.6331C125.863 70.8161 125.596 71.7078 126.647 74.9775C127.471 77.54 127.375 77.9265 125.14 79.6215C124.287 80.2685 123.557 80.8614 123.981 82.0858C124.149 82.5701 124.19 83.2321 123.789 83.5088C122.186 84.6159 121.661 86.4573 120.654 87.9551C119.036 90.3628 116.557 90.2472 114.171 90.4286C113.423 90.4856 112.86 89.7442 112.784 89.1646C112.511 87.0789 111.477 85.1805 110.76 83.3411C109.657 80.5107 108.829 78.0705 109.934 75.0861C110.251 74.2295 109.834 72.8145 109.27 71.9824C108.326 70.5882 107.877 69.1836 107.92 67.5435C107.934 67.0209 107.65 66.3702 107.123 66.4467C105.687 66.6556 104.522 65.3325 103.319 65.6034C101.969 65.9075 100.49 65.6417 99.2497 66.4135C98.4163 66.9319 97.6791 66.7234 96.9202 66.2246C95.0147 64.9722 93.935 62.9236 92.2725 61.4374C92.0981 61.2814 91.9929 60.9752 92.0345 60.7451C92.6061 57.5798 91.5127 53.9397 94.4996 51.4563C95.9516 50.2489 96.525 48.3987 97.9221 47.1613C98.5087 46.6417 98.5357 45.9381 97.6441 45.5903C97.0496 45.3581 96.4297 45.0241 96.6231 44.3821C96.9456 43.3124 96.3248 42.1849 96.8669 41.2059C97.3537 40.3276 98.299 40.487 99.127 40.5311C101.595 40.6625 101.82 40.4732 101.382 37.9569C101.196 36.891 101.45 36.3938 102.361 35.7348C103.417 34.9701 104.426 34.081 105.5 33.3225C107.228 32.1018 107.423 31.6275 106.189 29.7735C105.803 29.1936 105.553 28.6261 105.4 27.9729C104.977 26.153 105.262 25.37 106.98 24.5629C108.179 23.9999 109.077 23.2631 109.604 22.032C110.52 19.8931 112.284 18.6807 114.372 17.8769C115.23 17.5469 116.125 17.3168 116.988 17.0002C118.525 16.4361 119.838 16.1752 121.232 17.6501C122.149 18.6208 123.9 18.4714 125.114 19.2586C125.527 19.5265 126.168 19.5727 126.427 19.9247C127.438 21.3006 128.179 22.0129 128.753 19.6326C128.885 19.0863 129.758 18.9041 130.229 19.4649C130.945 20.3174 131.589 20.1177 132.401 19.6488C133.764 18.8625 135.344 19.2611 136.811 18.9752C138.368 18.6719 137.346 18.0008 137.146 17.4221L137.174 17.3876C138.398 17.6385 139.617 17.9243 140.85 18.1257C141.503 18.2322 141.962 18.248 142.165 17.2266C142.605 15.0094 143.6 14.5913 146.035 14.8205C146.906 14.9025 147.748 14.7523 148.63 15.1421C149.14 15.3672 150.054 15.2682 150.196 14.3628C150.393 13.1001 151.038 13.2628 151.989 13.5416C152.869 13.7991 154.069 14.2397 154.057 12.4644C154.053 11.9992 154.628 11.9144 155.032 11.8262C156.807 11.4392 158.462 10.6246 160.375 10.7099C162.131 10.7881 162.605 9.6219 161.661 7.94728C162.179 7.53705 162.477 6.96996 162.755 6.38873V6.38873ZM106.464 40.9658C104.612 41.2929 103.356 42.41 102.601 44.0197C102.233 44.8065 101.912 45.5121 101.097 45.8994C100.825 46.0284 100.274 45.9544 100.341 46.3088C100.393 46.5851 100.948 46.5273 101.246 46.4232C102.739 45.9028 104.225 45.4156 105.825 45.2766C106.699 45.2005 107.484 45.3261 108.246 45.6748C108.995 46.0176 108.898 46.7257 108.94 47.3981C108.972 47.9206 109.381 48.3562 109.904 48.3833C111.58 48.4694 113.177 49.8902 114.952 48.6521C115.226 48.4611 115.821 48.5006 116.155 48.6641C118.001 49.5707 119.976 48.9416 121.874 49.2025C122.803 49.3302 123.134 48.4203 123.312 47.7455C123.529 46.92 122.86 46.9034 122.217 46.8589C121.66 46.8202 121.083 46.3542 120.577 46.4407C118.834 46.7386 118.067 46.0151 117.957 44.3426C117.935 44.0047 117.73 43.6827 117.31 43.7405C117.027 43.7796 117.052 44.0896 116.945 44.2951C116.328 45.4825 114.731 45.6864 113.967 44.6762C113.735 44.37 113.715 43.5575 113.378 43.7264C111.644 44.5968 110.876 42.9862 109.721 42.427C108.962 42.0597 108.49 41.9249 108.414 43.0266C108.373 43.6128 108.046 44.353 107.384 44.1582C106.435 43.8786 107.277 43.22 107.318 42.7228C107.381 41.9777 107.92 40.9858 106.464 40.9658V40.9658ZM113.083 31.8384C114.239 31.8988 114.143 31.838 114.613 31.0978C115.716 29.3592 115.279 27.6404 114.703 25.9088C114.541 25.4216 114.605 24.5217 113.713 24.84C113.033 25.0825 112.607 25.8739 113.048 26.4726C114.537 28.4979 112.578 29.4756 111.776 30.7005C111.275 31.4665 110.269 32.2432 109.418 30.7966C109.294 30.5849 109.007 30.4134 108.806 30.6131C108.661 30.7563 108.604 31.082 108.644 31.3013C108.91 32.7384 110.042 32.4321 111.009 32.4346C111.756 32.4367 112.229 31.4748 113.083 31.8384V31.8384ZM126.84 41.949C126.487 40.5739 124.536 40.6929 124.248 39.1152C124.182 38.7553 123.69 39.6678 123.341 39.9324C122.786 40.3513 122.227 40.4766 121.884 39.7876C121.603 39.2238 121.301 38.8852 120.812 39.3998C120.254 39.9881 119.593 40.5956 119.7 41.5454C119.768 42.1491 120.233 42.4936 120.743 42.3825C122.344 42.0339 123.826 42.2577 125.338 42.8527C125.971 43.1015 126.665 42.8027 126.84 41.949ZM125.261 55.0011C124.738 55.1142 124.717 55.4949 124.69 55.9114C124.609 57.1254 125.482 57.8315 126.124 58.6582C126.415 59.0331 126.714 59.7033 127.196 59.4982C127.891 59.202 127.453 58.5196 127.321 58.0046C127.072 57.026 126.351 56.3104 125.845 55.4749C125.73 55.2827 125.479 55.1721 125.261 55.0011Z" fill="currentColor" />
    <path d="M0 33.5385C2.09234 32.2554 4.2109 31.0285 6.55287 30.238C6.8516 30.1373 7.26682 29.9521 7.23437 29.591C7.19693 29.1729 6.69225 29.3547 6.42764 29.1991C5.34964 28.565 4.23212 27.9863 3.21028 27.2711C1.94797 26.3874 2.00663 25.656 3.30639 24.8642C3.58681 24.6932 3.91674 24.6046 4.22213 24.4731C4.57203 24.3221 5.28432 24.4261 5.14452 23.9098C5.02179 23.4563 4.4131 23.8848 4.02159 23.8628C3.69249 23.8445 3.33884 23.8632 3.0422 23.7471C2.47012 23.5233 1.96545 23.0968 2.0678 22.4461C2.19802 21.6177 2.93361 21.5537 3.62301 21.5458C3.93006 21.542 4.37025 21.9019 4.50671 21.5175C4.63361 21.1605 4.10771 21.1035 3.84269 20.9316C1.86268 19.646 1.87017 19.3315 3.86474 18.1736C4.36941 17.8807 4.84205 17.5208 5.37169 17.2866C6.87739 16.6209 8.2924 16.2177 10.0694 16.8427C11.9953 17.52 14.1613 17.4805 16.1929 17.8994C18.7133 18.4191 21.1065 18.4312 23.6769 17.778C26.1458 17.1505 28.7923 17.6174 31.2686 18.4882C31.5661 18.5926 31.9476 18.8555 32.179 18.5102C32.3882 18.1978 32.1328 17.8587 31.8528 17.6702C31.4346 17.3894 31.0523 17.1535 30.9462 16.571C30.826 15.9111 30.4357 15.7638 29.9269 16.3109C29.3236 16.9596 28.5976 16.9479 27.857 16.6255C27.0989 16.2955 26.5194 15.8113 27.044 14.8968C27.3377 14.3846 27.6594 13.917 27.624 13.285C27.5741 12.3984 28.3492 12.2032 28.791 12.487C30.2127 13.399 31.9951 12.8935 33.4392 14.0093C34.6266 14.9271 36.2663 15.1963 37.8327 14.2415C38.7368 13.6906 39.6909 13.5687 39.4932 15.1942C39.4167 15.8254 39.6284 16.5144 40.0961 16.7619C41.38 17.4414 42.4572 17.9652 40.6295 19.2945C40.2463 19.5732 40.5313 20.0983 41.0081 20.2335C41.5764 20.3945 42.3915 20.5064 42.4568 19.7817C42.5333 18.9325 42.8279 18.4715 43.4907 17.9818C44.572 17.183 44.3902 16.6954 43.0014 16.6808C41.8731 16.6687 41.4865 15.4996 40.6374 15.0341C41.6263 14.856 42.0149 13.6698 43.0813 13.5966C43.6617 13.5567 44.2367 13.431 44.8129 13.3361C45.635 13.2009 46.198 12.7915 46.319 11.9087C46.3806 11.461 46.3482 11.0483 45.8193 10.943C45.065 10.7932 44.4018 10.3447 43.7212 11.4369C42.7601 12.9783 40.8558 11.6882 39.5248 12.3942L39.1799 11.481C39.3884 11.2596 39.4117 11.0387 39.1791 10.8178C39.3501 9.9299 38.7056 9.12941 39.1362 8.13379C39.8585 6.46374 40.0399 6.29316 41.4961 7.21597C41.9305 7.4914 42.4863 7.80178 42.3166 8.33641C42.089 9.05119 41.4836 8.44541 41.0509 8.47454C40.5138 8.51074 39.9967 8.559 39.9908 9.23301C39.985 9.8962 40.4747 10.0139 41.0289 10.0106C41.6126 10.0073 42.198 10.0647 42.7796 10.0335C43.8527 9.97608 44.4796 9.61204 43.6172 8.50075C43.2419 8.01688 42.7601 7.48266 43.3788 6.99421C44.0228 6.48538 44.4697 7.22471 44.7817 7.6183C45.0933 8.01147 46.1863 8.01105 45.5393 9.09155C45.3434 9.41898 46.3806 9.64241 46.9102 9.77305C47.1636 9.83546 47.4128 9.68068 47.4761 9.39818C47.6042 8.82444 47.3309 8.44208 46.8408 8.18205C46.7634 8.14232 46.689 8.097 46.6182 8.04642C43.5227 5.77143 43.5597 5.05789 46.8836 3.1016C47.4586 2.76225 48.0817 2.51199 48.7317 2.35936C52.1342 1.54805 55.6212 1.31381 59.0745 0.909822C60.5177 0.740904 62.0468 1.23518 63.5271 1.48689C64.0896 1.58258 65.0727 1.81474 65.0864 2.034C65.1268 2.6714 64.2414 2.6481 63.8458 3.055C63.6211 3.28633 63.2021 3.45109 63.4256 3.83968C63.6806 4.28278 64.2452 4.304 64.489 3.97698C65.9414 2.03109 67.9672 2.52328 69.9597 2.3993C71.5811 2.29861 73.2187 2.08518 74.885 1.51185C76.7198 0.880279 78.9082 0.697216 80.9698 0.532042C81.3829 0.499174 81.9142 0.733829 82.203 0.549932C84.6968 -1.03607 86.7821 1.32421 89.1103 1.21188C89.3878 1.19856 89.6017 1.43321 89.5126 1.71156C89.4461 1.91958 89.2306 2.21831 89.0612 2.23204C87.8979 2.32732 86.7288 2.35229 85.5622 2.41511C85.3217 2.42801 85.0846 2.50706 84.8458 2.55574C84.9872 2.96389 85.35 2.82451 85.6134 2.82409C88.1051 2.81827 90.5923 3.17025 93.092 2.87069C93.699 2.79788 94.579 2.71134 94.6984 3.62458C94.7924 4.34311 94.0285 4.47916 93.5317 4.75168C91.746 5.7319 89.7548 6.59397 91.1228 9.26921C91.2938 9.6033 90.8498 9.91201 90.8573 10.1716C90.9247 12.4787 88.9081 14.2818 89.3387 16.6871C89.4598 17.3636 89.035 18.0692 88.3473 18.2814C86.8449 18.7449 85.6762 20.0692 83.9604 19.9622C83.7981 19.9523 83.5972 19.9635 83.4715 20.0496C81.0151 21.7296 77.7441 22.5268 76.9216 25.9921C76.6091 27.3081 75.8386 27.4725 74.6632 27.1363C72.8014 26.6037 71.8806 25.1871 70.9453 23.6576C69.9763 22.0729 69.5561 20.6383 71.0402 19.1501C71.2719 18.9179 71.2557 18.6267 70.9316 18.3234C70.1915 17.6311 68.8834 15.3627 68.687 14.6084C68.085 12.2943 65.7808 10.405 63.498 11.015C60.9754 11.689 60.0676 10.0098 58.8007 8.6809C58.2856 8.14086 58.737 7.76308 59.2026 7.53051C59.8687 7.19725 60.6534 7.19933 61.2987 6.73876C61.8217 6.36555 61.857 6.04686 61.5903 5.49766C61.3091 4.9181 60.9646 5.12197 60.5835 5.27466C58.3164 6.18249 56.3044 7.29461 55.56 9.93198C55.3108 10.8161 54.6127 11.5375 54.3838 12.5502C54.187 13.4214 52.9938 13.223 52.1892 13.3536C51.8958 13.4015 51.3878 13.124 51.362 13.53C51.3429 13.8313 51.9524 13.6873 52.2137 13.8375C54.0219 14.8751 56.2644 14.2436 58.0693 15.5504C59.5063 16.5909 61.1997 17.1364 61.8991 19.0927C62.2402 20.0475 63.5629 20.3929 64.5589 20.8114C65.0245 21.007 65.6997 21.158 65.1913 21.76C64.7931 22.2314 64.6042 23.3618 63.5391 22.8002C63.1805 22.6109 62.9134 22.251 62.5968 21.978C62.4129 21.8195 62.1637 21.6077 61.9594 21.7866C61.7339 21.9839 61.9536 22.2293 62.1104 22.4078C62.3309 22.6591 62.6005 22.8717 62.7961 23.1392C63.153 23.6277 64.0883 24.0845 63.3565 24.7573C62.8044 25.2653 62.1092 26.0828 61.1743 25.6443C59.3324 24.781 57.6823 23.3905 55.4261 23.7916C55.2122 23.8295 55.0021 23.5461 54.9984 23.2736C54.9938 22.9687 55.211 22.8438 55.4826 22.8222C55.8983 22.7889 56.3381 22.8497 56.7267 22.734C57.7934 22.4161 58.4487 21.0977 58.0688 20.1474C57.6274 19.0436 54.953 17.7601 53.6869 17.9053C52.7895 18.0085 53.3753 18.3617 53.3146 18.7432C53.1436 19.8183 54.0002 21.522 51.7119 21.614C50.8994 21.6468 51.5426 22.3163 51.87 22.6196C52.465 23.1709 53.8567 23.2578 53.6936 24.0608C53.5384 24.8263 52.1817 23.7134 51.4939 24.4931C51.2077 24.8176 50.6739 24.8513 50.3319 24.5721C48.9897 23.4771 48.1792 24.6137 47.3221 25.2927C44.7726 27.3131 44.8778 28.4298 47.8376 29.856C48.5071 30.1785 49.1241 30.6636 49.8405 30.8379C51.7069 31.2927 53.2971 31.9883 53.766 34.1235C53.8488 34.4996 54.3131 35.1811 54.8744 34.6544C55.1831 34.3644 55.1852 33.881 54.9468 33.5311C54.2158 32.4576 54.3539 31.7454 55.6079 31.1966C56.1675 30.9519 55.9973 30.3075 55.7631 29.8602C55.3466 29.0655 55.5064 28.2272 55.4681 27.4021C55.3707 25.2865 56.559 24.5122 58.4641 25.5174C59.1885 25.8998 60.0218 26.3483 60.4275 27.0011C61.1081 28.0965 61.6432 28.6645 62.9604 27.8477C63.8166 27.3169 64.4258 28.1319 64.7024 28.7951C65.3078 30.2459 66.4149 31.1803 67.5416 32.1818C68.3995 32.9444 69.7571 33.6292 68.9491 35.2614C68.6878 35.7886 69.2778 35.9051 69.6011 36.1231C70.1627 36.5021 70.6882 36.9219 70.813 37.645C70.8705 37.9774 70.6554 38.5637 70.6146 38.532C69.6951 37.8202 68.5971 38.4979 67.6926 38.1351C67.0827 37.8905 67.0486 37.2439 67.277 36.6132C67.6277 35.6442 67.1197 35.6692 66.3974 35.8481C65.9173 35.9671 65.3881 36.0432 64.9059 35.9704C63.1676 35.7087 63.2654 36.2995 63.7938 37.6858C64.2627 38.9161 64.7428 38.82 65.6173 38.3261C66.0263 38.0952 66.4569 38.1472 66.6483 38.6269C66.8301 39.0825 66.5464 39.6155 66.199 39.6716C64.8955 39.883 63.8312 41.4536 62.2827 40.3494C61.8167 40.0174 61.0337 40.2695 60.9538 40.6402C60.6376 42.1114 59.3977 42.4987 58.3751 43.174C58.182 43.3013 58.041 43.5622 57.9565 43.791C57.2039 45.8205 56.1284 47.5575 54.3451 48.9218C53.439 49.6149 53.3803 50.8202 54.3102 51.8167C54.7666 52.3056 54.8956 52.9804 54.2807 53.3324C53.6716 53.6806 53.5858 52.8065 53.2201 52.5361C52.8303 52.2477 52.5008 51.8292 52.2536 51.4044C51.5251 50.1529 50.4064 50.0181 49.2148 50.4C48.4854 50.6338 47.781 50.8107 47.0209 50.8111C45.5248 50.8119 44.1892 50.7379 44.5362 53.0794C44.6656 53.9527 43.4166 54.9338 44.5591 56.0488C45.3912 56.8605 46.143 57.2458 47.1927 56.5905C47.5468 56.3696 47.878 56.1104 48.2362 55.8961C48.7579 55.5837 49.407 55.344 49.9046 55.6523C50.6681 56.1258 49.9204 56.7212 49.7186 57.1318C49.0696 58.4553 49.1973 59.1409 50.8586 59.1272C51.7448 59.1201 52.2395 59.7126 52.2599 60.5838C52.279 61.4001 51.9329 62.4265 52.9767 62.7419C54.0656 63.0706 55.4477 63.1821 56.2973 62.5031C58.1263 61.0415 59.9282 61.351 61.8945 61.9672C62.4233 62.1328 62.9725 62.211 63.5254 62.2472C66.7149 62.4577 68.4702 65.47 71.3984 66.1814C72.397 69.6372 75.9655 69.103 78.2629 70.5379C78.8583 70.9099 79.623 71.1009 80.2671 71.4982C81.509 72.2654 81.8514 73.2502 80.909 74.4064C79.9667 75.5622 79.7229 76.9169 79.3218 78.2861C78.6623 80.5366 78.2563 83.1361 75.021 83.3408C74.149 83.3961 73.6959 84.2166 73.4379 85.0924C72.4028 88.6072 72.0288 88.9779 68.2314 90.4449C67.9368 90.5589 67.8516 90.6754 67.9481 90.9459C68.5447 92.6159 67.401 93.0707 66.1907 93.1838C65.0594 93.2899 65.0016 94.2306 64.5527 94.8431C63.7455 95.9444 63.5575 97.4442 62.3542 98.3188C62.2793 98.3733 62.3634 98.8572 62.5069 98.9674C63.2849 99.5645 62.94 99.9493 62.4453 100.571C60.8044 102.635 60.834 102.748 62.3076 104.895C62.5431 105.237 62.9983 105.493 62.2589 105.742C60.2602 106.414 58.3838 105.485 57.6266 103.495C57.0358 101.943 57.0008 100.247 57.4136 98.796C58.2752 95.7663 58.1496 92.618 58.8818 89.5458C59.4422 87.1939 59.8945 84.5773 59.9319 82.0169C59.9557 80.4147 59.3166 79.1811 58.0476 78.4309C56.643 77.6005 55.8558 76.4339 55.3266 74.9802C55.186 74.5941 54.9335 74.2496 54.7558 73.8751C54.2869 72.887 52.4238 72.5604 53.4931 70.8109C54.0714 69.8648 53.8172 68.488 54.8827 67.7059C55.5688 67.2024 55.6037 66.4702 55.6432 65.6917C55.6857 64.86 55.4851 64.5172 54.5702 64.4282C52.9156 64.2676 51.1811 64.0891 50.7733 61.9273C50.6847 61.4575 50.1222 61.4059 49.7498 61.3306C47.8276 60.94 46.3115 59.6639 44.0898 59.5828C42.2146 59.5145 39.6875 58.563 38.736 56.0654C38.3158 54.9625 37.8456 54.1607 36.1069 54.5127C34.6849 54.8006 33.7621 53.012 33.2794 51.716C32.5268 49.6961 31.4538 48.145 29.7159 46.7541C27.8374 45.2509 27.3215 42.7812 27.369 40.381C27.4014 38.7409 27.5258 37.1886 25.7617 36.2962C25.386 36.106 25.2321 35.8002 25.1801 35.3093C24.9733 33.3621 24.8135 33.2531 22.7457 33.0888C22.0805 33.0359 22.1067 32.471 21.862 32.0591C20.358 29.5286 18.4479 27.6551 15.2563 27.3102C14.0997 27.185 13.3895 27.7816 12.4663 27.9601C11.4865 28.1494 10.3203 27.6926 10.9643 29.5136C11.1544 30.052 10.3111 30.8671 9.62128 30.6441C8.36022 30.2359 7.75943 30.9116 7.11288 31.7129C6.95894 31.9039 6.76256 32.198 6.57659 32.2051C4.29161 32.292 2.40272 33.8073 0.146451 33.9725L0 33.5385V33.5385ZM47.5006 14.8593C47.0908 14.9284 46.6814 15.0091 46.3972 15.3499C46.0731 15.7384 46.195 16.1462 46.4659 16.4715C47.3429 17.5246 47.9949 18.8293 49.5464 19.143C49.8476 19.2038 49.4681 20.1203 50.1176 19.9602C50.4346 19.8824 50.7613 19.4122 50.8761 19.0532C51.0242 18.5901 50.6027 18.2672 50.21 18.1703C48.864 17.8383 48.3889 16.8851 48.2445 15.6386C48.195 15.213 48.0652 14.8169 47.5006 14.8593V14.8593Z" fill="currentColor" />
    <path d="M187.308 76.7823C187.286 75.5549 187.332 74.5039 186.014 74.1857C185.853 74.147 185.56 74.0596 185.565 74.0222C185.857 71.4838 183.619 71.8932 182.321 71.2055C182.034 71.0532 181.793 70.7944 181.567 70.551C181.163 70.1154 180.693 69.5803 181.159 69.0203C181.706 68.3638 182.579 68.5826 182.871 69.173C183.483 70.4087 184.242 70.0417 185.292 69.949C187.618 69.743 189.483 70.9883 190.75 72.8231C191.242 73.5358 192.625 74.3342 192.196 74.8068C191.514 75.5599 190.635 74.4091 189.86 74.018C189.236 73.7034 188.692 73.8599 188.28 74.3375C187.82 74.8709 188.126 75.3993 188.387 75.9539C189.656 78.6558 191.525 80.9499 193.308 83.3031C194.968 85.4932 195.061 86.7027 193.73 89.0892C193.484 89.5298 193.232 89.9679 193.023 90.4268C191.416 93.9537 188.752 94.3885 186.019 91.8006C184.727 90.5762 183.169 89.6172 181.672 88.6286C180.739 88.012 179.782 88.3078 178.839 88.8321C177.307 89.685 175.702 90.2907 173.908 90.4684C171.947 90.6623 171.924 90.7734 171.648 88.7892C171.411 87.083 170.391 85.5939 170.627 83.7133C170.815 82.2118 171.381 81.4662 172.769 81.0718C173.917 80.746 174.992 80.5372 175.548 78.9786C175.856 78.1145 177.483 77.2474 178.836 77.3111C179.624 77.3481 180.065 77.2262 180.46 76.5555C181.078 75.5033 182.142 75.6206 183.15 75.6964C183.805 75.7455 184.355 76.045 184.194 76.7885C183.83 78.4648 184.908 79.0244 186.14 78.957C187.555 78.8792 187.174 77.5095 187.308 76.7823V76.7823ZM111.193 5.59686C110.388 5.79574 109.29 4.93533 108.779 6.17143C108.253 7.44082 109.715 7.77199 110.07 8.6403C110.269 9.12376 110.694 9.39628 111.087 9.70873C111.796 10.2721 112.548 10.3586 113.006 9.55146C113.711 8.30746 114.477 8.28583 115.508 9.08757C115.775 9.29518 116.148 9.25024 116.431 9.01684C116.642 8.84251 116.757 8.52256 116.547 8.36529C114.328 6.70939 116.313 6.99023 117.266 6.73103C117.652 6.62577 118.004 6.36489 118.347 6.13773C118.54 6.01 118.809 5.81196 118.818 5.63514C118.831 5.36969 118.5 5.33225 118.268 5.31685C117.107 5.2403 116.016 4.67322 114.7 4.8621C113.511 4.61247 112.396 5.2998 111.193 5.59686V5.59686ZM37.4418 10.0012C37.0528 9.56603 36.4528 9.46284 36.2136 10.0491C35.2808 12.334 34.1449 10.6024 33.4368 10.0603C31.5483 8.61534 30.7354 8.53754 29.1323 10.0894C28.4375 10.7622 28.3938 11.1841 29.434 11.3921C30.8202 11.6692 32.1233 12.0678 33.3773 12.8133C34.8963 13.7166 37.9535 12.8828 39.1701 11.4803C39.3785 11.259 39.4018 11.038 39.1692 10.8171C38.4357 10.8779 37.9152 10.5309 37.4418 10.0012V10.0012ZM167.785 67.919C167.695 67.9831 167.679 68.2423 167.72 68.3854C168.042 69.5179 168.383 70.6542 169.734 70.9808C170.903 71.2633 171.759 70.9463 172.502 69.8916C173.432 68.5702 173.009 67.0016 173.542 65.6158C173.739 65.104 173.082 64.8327 172.22 64.8269C170.878 65.7564 169.323 66.8265 167.785 67.919ZM131.97 76.3026C130.928 77.0344 129.484 77.6069 128.949 78.7202C128.333 80.0029 128.111 81.5548 128.2 83.0564C128.231 83.5835 128.509 84.0046 129.08 84.1061C129.772 84.2292 130.593 84.1839 130.791 83.4749C131.339 81.5111 132.401 79.7096 132.671 77.7866C132.438 77.1334 132.656 75.8199 131.97 76.3026ZM137.157 17.3912C135.435 15.479 135.437 15.0759 137.391 13.4545C138.543 12.498 139.801 11.7021 141.299 11.3484C141.939 11.1974 142.564 10.9536 143.164 10.6815C143.324 10.6091 143.453 10.2725 143.443 10.0653C143.422 9.67295 143.097 9.4695 142.742 9.55646C139.515 10.3457 136.285 11.1391 134.195 14.0844C133.359 15.2618 133.646 16.542 134.925 17.179C135.626 17.5281 136.386 17.4166 137.129 17.4253L137.157 17.3912ZM205.119 98.0456C205.721 96.5932 206.817 95.6828 208.036 94.7775C209.516 93.6787 209.41 92.8849 207.883 91.6754C207.561 91.4199 207.237 91.001 206.82 91.1915C206.316 91.4216 206.637 91.9038 206.703 92.287C206.895 93.3945 206.747 94.1517 205.531 94.7945C204.498 95.3408 203.763 96.5037 202.987 97.4669C202.377 98.2258 202.706 99.0287 203.657 99.0837C204.309 99.0924 204.87 98.6468 205.119 98.0456V98.0456ZM187.291 42.8875C186.955 42.6944 186.603 42.7622 186.427 43.078C185.364 44.9944 183.589 45.9305 181.656 46.7194C180.866 47.0418 180.316 47.7067 180.356 48.6644C180.372 49.0347 180.578 49.3613 180.965 49.1891C182.732 48.4044 184.555 47.6992 186.201 46.706C187.191 46.1086 187.526 44.8504 187.756 43.8744C187.783 43.3218 187.594 43.0618 187.291 42.8875ZM160.36 4.24801C159.163 3.46624 158.424 4.21056 157.976 5.13628C157.51 6.09904 157.85 6.94862 158.979 7.27231C159.861 7.52486 160.756 7.72706 161.645 7.95173C162.161 7.53692 162.459 6.96984 162.738 6.38861C162.188 5.40464 161.265 4.83839 160.36 4.24801ZM184.909 11.3297C184.416 12.1947 185.469 12.3266 185.842 12.7842C185.998 12.9764 186.174 13.1553 186.308 13.3621C186.682 13.9425 187.133 14.5508 187.881 14.3061C188.806 14.0037 187.663 13.3172 188.023 12.847C188.222 12.5883 188.39 12.3037 188.601 12.0561C189.099 11.4699 188.769 11.1491 188.221 10.9981C187.749 10.8683 187.242 10.8666 186.913 10.8279C186.097 10.8978 185.27 10.6952 184.909 11.3297ZM175.515 62.0227C176.324 62.7217 177.059 62.1658 177.469 61.6715C177.911 61.1369 177.423 60.5162 176.775 60.3876C175.603 60.155 175.532 59.5817 175.939 58.6002C176.111 58.1838 175.618 57.8264 175.223 57.7194C174.696 57.5763 174.507 58.0527 174.375 58.4367C174.269 58.7454 174.282 59.0949 174.241 59.4261C174.159 60.5445 174.715 61.332 175.515 62.0227V62.0227ZM173.545 70.0888C173.606 70.831 173.712 71.8936 174.518 72.0783C174.953 72.1782 176.066 71.7854 175.993 70.8069C175.94 70.0904 175.771 69.2978 174.768 69.1926C174.17 69.2217 173.49 69.4252 173.545 70.0888Z" fill="currentColor" />
</svg>
